<svg id="Layer_1" data-name="Layer 1" xmlns="http://www.w3.org/2000/svg" viewBox="0 0 125.5 24.75"><defs><style>.cls-1{fill:#fff;}</style></defs><title>Tail 1</title><path class="cls-1" d="M685.5,503h-103a1.5,1.5,0,0,1,0-3h103a1.5,1.5,0,0,1,0,3Z" transform="translate(-577.25 -500)"/><path class="cls-1" d="M680.5,513.75h-85a1.25,1.25,0,0,1,0-2.5h85a1.25,1.25,0,0,1,0,2.5Z" transform="translate(-577.25 -500)"/><path class="cls-1" d="M693.5,513.75h-5a1.25,1.25,0,0,1,0-2.5h5a1.25,1.25,0,0,1,0,2.5Z" transform="translate(-577.25 -500)"/><path class="cls-1" d="M701.5,524.75h-91a1.25,1.25,0,0,1,0-2.5h91a1.25,1.25,0,0,1,0,2.5Z" transform="translate(-577.25 -500)"/><path class="cls-1" d="M601.5,524.75h-23a1.25,1.25,0,0,1,0-2.5h23a1.25,1.25,0,0,1,0,2.5Z" transform="translate(-577.25 -500)"/></svg>