<svg id="Layer_1" data-name="Layer 1" xmlns="http://www.w3.org/2000/svg" viewBox="0 0 134.5 24.75"><defs><style>.cls-1{fill:#fff;}</style></defs><title>λΈν†µ 2</title><path class="cls-1" d="M156.5,83H46.5a1.5,1.5,0,0,1,0-3h110a1.5,1.5,0,0,1,0,3Z" transform="translate(-34.25 -80)"/><path class="cls-1" d="M128.5,93.75h-93a1.25,1.25,0,0,1,0-2.5h93a1.25,1.25,0,0,1,0,2.5Z" transform="translate(-34.25 -80)"/><path class="cls-1" d="M140.5,93.75h-5a1.25,1.25,0,0,1,0-2.5h5a1.25,1.25,0,0,1,0,2.5Z" transform="translate(-34.25 -80)"/><path class="cls-1" d="M167.5,104.75h-93a1.25,1.25,0,0,1,0-2.5h93a1.25,1.25,0,0,1,0,2.5Z" transform="translate(-34.25 -80)"/><path class="cls-1" d="M65.5,104.75h-23a1.25,1.25,0,0,1,0-2.5h23a1.25,1.25,0,0,1,0,2.5Z" transform="translate(-34.25 -80)"/></svg>