<svg id="Layer_1" data-name="Layer 1" xmlns="http://www.w3.org/2000/svg" viewBox="0 0 125.5 24.75"><defs><style>.cls-1{fill:#fff;}</style></defs><title>λΈν†µ 1</title><path class="cls-1" d="M145.5,91H42.5a1.5,1.5,0,0,1,0-3h103a1.5,1.5,0,0,1,0,3Z" transform="translate(-37.25 -88)"/><path class="cls-1" d="M140.5,101.75h-85a1.25,1.25,0,0,1,0-2.5h85a1.25,1.25,0,0,1,0,2.5Z" transform="translate(-37.25 -88)"/><path class="cls-1" d="M153.5,101.75h-5a1.25,1.25,0,0,1,0-2.5h5a1.25,1.25,0,0,1,0,2.5Z" transform="translate(-37.25 -88)"/><path class="cls-1" d="M161.5,112.75h-91a1.25,1.25,0,0,1,0-2.5h91a1.25,1.25,0,0,1,0,2.5Z" transform="translate(-37.25 -88)"/><path class="cls-1" d="M61.5,112.75h-23a1.25,1.25,0,0,1,0-2.5h23a1.25,1.25,0,0,1,0,2.5Z" transform="translate(-37.25 -88)"/></svg>