<svg id="Layer_1" data-name="Layer 1" xmlns="http://www.w3.org/2000/svg" viewBox="0 0 134.5 24.75"><defs><style>.cls-1{fill:#fff;}</style></defs><title>머리</title><path class="cls-1" d="M695.5,503h-110a1.5,1.5,0,0,1,0-3h110a1.5,1.5,0,0,1,0,3Z" transform="translate(-573.25 -500)"/><path class="cls-1" d="M667.5,513.75h-93a1.25,1.25,0,0,1,0-2.5h93a1.25,1.25,0,0,1,0,2.5Z" transform="translate(-573.25 -500)"/><path class="cls-1" d="M679.5,513.75h-5a1.25,1.25,0,0,1,0-2.5h5a1.25,1.25,0,0,1,0,2.5Z" transform="translate(-573.25 -500)"/><path class="cls-1" d="M706.5,524.75h-93a1.25,1.25,0,0,1,0-2.5h93a1.25,1.25,0,0,1,0,2.5Z" transform="translate(-573.25 -500)"/><path class="cls-1" d="M604.5,524.75h-23a1.25,1.25,0,0,1,0-2.5h23a1.25,1.25,0,0,1,0,2.5Z" transform="translate(-573.25 -500)"/></svg>