<svg id="Layer_2" data-name="Layer 2" xmlns="http://www.w3.org/2000/svg" viewBox="0 0 319.02 319.03"><defs><style>.cls-1{fill:#141516;}</style></defs><title>Apply ico</title><path class="cls-1" d="M220.92,274H93.65A6.65,6.65,0,0,1,87,267.37v-182a6.65,6.65,0,0,1,6.64-6.64H220.92a6.64,6.64,0,0,1,6.64,6.64v182A6.64,6.64,0,0,1,220.92,274ZM93.65,81.1a4.28,4.28,0,0,0-4.28,4.28v182a4.28,4.28,0,0,0,4.28,4.28H220.92a4.28,4.28,0,0,0,4.28-4.28v-182a4.28,4.28,0,0,0-4.28-4.28Z"/><path class="cls-1" d="M230.37,264.56h-4.81V262.2h4.81a4.28,4.28,0,0,0,4.28-4.28v-182a4.28,4.28,0,0,0-4.28-4.28H103.1a4.28,4.28,0,0,0-4.28,4.28v4.53H96.46V75.93a6.65,6.65,0,0,1,6.64-6.64H230.37A6.65,6.65,0,0,1,237,75.93v182A6.64,6.64,0,0,1,230.37,264.56Z"/><path class="cls-1" d="M157.09,172.83a36.62,36.62,0,1,1,36.62-36.61A36.65,36.65,0,0,1,157.09,172.83Zm0-70.86a34.25,34.25,0,1,0,34.25,34.25A34.28,34.28,0,0,0,157.09,102Z"/><path class="cls-1" d="M156.7,146.06c-6.52,0-11.81-6.18-11.81-13.78s5.29-13.78,11.81-13.78,11.81,6.18,11.81,13.78S163.21,146.06,156.7,146.06Zm0-25.2c-5.21,0-9.45,5.12-9.45,11.42s4.24,11.42,9.45,11.42,9.45-5.12,9.45-11.42S161.91,120.86,156.7,120.86Z"/><path class="cls-1" d="M157.09,172.83a36.57,36.57,0,0,1-24.33-9.26l-.34-.31,0-.45c-.05-.51-.08-1-.08-1.4,0-9.77,11-17.71,24.41-17.71s24.41,7.94,24.41,17.71a13.43,13.43,0,0,1-.2,2.25l-.08.43-.33.28A36.65,36.65,0,0,1,157.09,172.83Zm-22.41-10.72a34.21,34.21,0,0,0,44,.72,9.78,9.78,0,0,0,.1-1.42c0-8.46-9.89-15.35-22-15.35s-22,6.89-22,15.35C134.65,161.63,134.66,161.86,134.68,162.11Z"/><circle class="cls-1" cx="115.75" cy="194.09" r="3.15"/><circle class="cls-1" cx="115.75" cy="213.78" r="3.15"/><circle class="cls-1" cx="115.75" cy="233.46" r="3.15"/><rect class="cls-1" x="126.78" y="192.91" width="42.52" height="2.36"/><rect class="cls-1" x="126.78" y="212.99" width="21.26" height="2.36"/><rect class="cls-1" x="175.6" y="192.52" width="14.96" height="2.36"/><rect class="cls-1" x="154.34" y="212.99" width="43.31" height="2.36"/><rect class="cls-1" x="126.78" y="232.67" width="10.24" height="2.36"/><rect class="cls-1" x="181.11" y="232.67" width="10.24" height="2.36"/><rect class="cls-1" x="143.31" y="232.67" width="32.28" height="2.36"/><path class="cls-1" d="M61,59.51a10,10,0,1,1,10-10A10,10,0,0,1,61,59.51Zm0-17a7,7,0,1,0,7,7A7,7,0,0,0,61,42.51Z"/><path class="cls-1" d="M275,137.63a1.47,1.47,0,0,1-1.06-.44,1.51,1.51,0,0,1,0-2.12l13.63-13.63a1.51,1.51,0,0,1,2.12,0,1.49,1.49,0,0,1,0,2.12l-13.63,13.63A1.45,1.45,0,0,1,275,137.63Z"/><path class="cls-1" d="M289,138a1.47,1.47,0,0,1-1.06-.44l-13.63-13.63a1.5,1.5,0,0,1,2.12-2.12l13.63,13.63a1.49,1.49,0,0,1,0,2.12A1.45,1.45,0,0,1,289,138Z"/><path class="cls-1" d="M236.41,39.5h0A1.5,1.5,0,0,1,234.91,38l.34-16a1.5,1.5,0,0,1,1.5-1.46h0A1.49,1.49,0,0,1,238.25,22l-.34,16A1.5,1.5,0,0,1,236.41,39.5Z"/><path class="cls-1" d="M245,31.68h0l-16-.34a1.5,1.5,0,0,1,0-3h0l16,.34a1.5,1.5,0,0,1,0,3Z"/><path class="cls-1" d="M40.41,141.5h0A1.5,1.5,0,0,1,38.91,140l.34-16a1.5,1.5,0,0,1,1.5-1.46h0A1.49,1.49,0,0,1,42.25,124l-.34,16A1.5,1.5,0,0,1,40.41,141.5Z"/><path class="cls-1" d="M49,133.68h0l-16-.34a1.5,1.5,0,0,1,0-3h0l16,.34a1.5,1.5,0,0,1,0,3Z"/><path class="cls-1" d="M87,266H42a1.5,1.5,0,1,1,0-3H87a1.5,1.5,0,0,1,0,3Z"/><path class="cls-1" d="M63,256.51H19a1.5,1.5,0,1,1,0-3H63a1.5,1.5,0,1,1,0,3Z"/><path class="cls-1" d="M268,261.51H235a1.5,1.5,0,0,1,0-3h33a1.5,1.5,0,0,1,0,3Z"/><path class="cls-1" d="M298,271.51H246a1.5,1.5,0,0,1,0-3h52a1.5,1.5,0,0,1,0,3Z"/><rect class="cls-1" x="172.01" y="251.01" width="13" height="2"/><rect class="cls-1" x="192.01" y="251.01" width="23" height="2"/></svg>