<svg xmlns="http://www.w3.org/2000/svg" viewBox="0 0 1280 450"><defs><style>.cls-1{fill:#fff;}</style></defs><title>Award 1</title><g id="Layer_3" data-name="Layer 3"><path class="cls-1" d="M56.08,113h0a2.3,2.3,0,0,1-2.24-2.34l.53-24.43A2.29,2.29,0,0,1,56.61,84h0a2.3,2.3,0,0,1,2.24,2.34l-.53,24.43A2.28,2.28,0,0,1,56.08,113Z"/><path class="cls-1" d="M69.22,101.06h0l-24.43-.52a2.29,2.29,0,0,1,0-4.58h.05l24.43.52a2.29,2.29,0,0,1,0,4.58Z"/><path class="cls-1" d="M220,215.12a1.51,1.51,0,0,1-1.06-.44,1.49,1.49,0,0,1,0-2.12l13.63-13.63a1.5,1.5,0,0,1,2.12,2.12l-13.63,13.63A1.51,1.51,0,0,1,220,215.12Z"/><path class="cls-1" d="M234,215.49a1.51,1.51,0,0,1-1.06-.44l-13.63-13.63a1.5,1.5,0,0,1,2.12-2.12l13.63,13.63a1.49,1.49,0,0,1,0,2.12A1.51,1.51,0,0,1,234,215.49Z"/><path class="cls-1" d="M42.31,271.69a5,5,0,1,1,5-5A5,5,0,0,1,42.31,271.69Zm0-8.5a3.5,3.5,0,1,0,3.5,3.5A3.5,3.5,0,0,0,42.31,263.19Z"/><path class="cls-1" d="M274.5,46a7.5,7.5,0,1,1,7.5-7.5A7.5,7.5,0,0,1,274.5,46Zm0-12.75a5.25,5.25,0,1,0,5.25,5.25A5.26,5.26,0,0,0,274.5,33.25Z"/><path class="cls-1" d="M76.68,212.13a1.5,1.5,0,0,1-2.56-1.06V187.42a1.5,1.5,0,1,1,3,0v23.65A1.51,1.51,0,0,1,76.68,212.13Z"/><path class="cls-1" d="M89.15,200.3a1.51,1.51,0,0,1-1.06.44H64.43a1.5,1.5,0,0,1,0-3H88.09a1.5,1.5,0,0,1,1.5,1.5A1.49,1.49,0,0,1,89.15,200.3Z"/><path class="cls-1" d="M166.17,96.19,88.39,174a1.5,1.5,0,0,1-2.12-2.12l77.78-77.78a1.5,1.5,0,1,1,2.12,2.12Z"/><path class="cls-1" d="M154,123.59,88.21,189.35a1.25,1.25,0,0,1-1.76-1.77l65.76-65.76a1.25,1.25,0,0,1,1.76,1.77Z"/><path class="cls-1" d="M162.46,115.1l-3.54,3.54a1.25,1.25,0,0,1-1.76-1.77l3.53-3.53a1.25,1.25,0,0,1,1.77,1.76Z"/><path class="cls-1" d="M189.33,103.79l-65.76,65.76a1.25,1.25,0,1,1-1.77-1.77L187.56,102a1.25,1.25,0,0,1,1.77,1.77Z"/><path class="cls-1" d="M117.2,175.91l-16.26,16.27a1.25,1.25,0,0,1-1.77,0,1.27,1.27,0,0,1,0-1.77l16.27-16.26a1.24,1.24,0,0,1,1.76,1.76Z"/></g></svg>