<svg id="Layer_2" data-name="Layer 2" xmlns="http://www.w3.org/2000/svg" viewBox="0 0 374 235"><defs><style>.cls-1{fill:#fff;}</style></defs><title>아래장식1</title><path class="cls-1" d="M320.31,73.91h0a1,1,0,0,1-1-1l.31-14.47a1,1,0,0,1,1-1h0a1,1,0,0,1,1,1l-.31,14.46A1,1,0,0,1,320.31,73.91Z"/><path class="cls-1" d="M328.09,66.84h0l-14.47-.31a1,1,0,0,1,0-2h0l14.47.31a1,1,0,0,1,0,2Z"/><path class="cls-1" d="M212.51,86.53h0a1,1,0,0,1-1-1l.31-14.14a1,1,0,0,1,1-1h0a1,1,0,0,1,1,1l-.3,14.14A1,1,0,0,1,212.51,86.53Z"/><path class="cls-1" d="M220.11,79.63h0L206,79.32a1,1,0,0,1,0-1.95h0l14.13.3a1,1,0,0,1,0,2Z"/><path class="cls-1" d="M144.31,187.91h0a1,1,0,0,1-1-1l.31-14.47a1,1,0,0,1,1-1h0a1,1,0,0,1,1,1l-.31,14.46A1,1,0,0,1,144.31,187.91Z"/><path class="cls-1" d="M152.09,180.84h0l-14.47-.31a1,1,0,0,1,0-2h0l14.47.31a1,1,0,0,1,0,2Z"/><path class="cls-1" d="M73.31,86.91h0a1,1,0,0,1-1-1l.31-14.47a1,1,0,0,1,1-1h0a1,1,0,0,1,1,1l-.31,14.46A1,1,0,0,1,73.31,86.91Z"/><path class="cls-1" d="M81.09,79.84h0L66.6,79.53a1,1,0,0,1,0-2h0l14.47.31a1,1,0,0,1,0,2Z"/><path class="cls-1" d="M144,51.67a1,1,0,0,1-.71-1.71l12.33-12.33a1,1,0,0,1,1.41,0,1,1,0,0,1,0,1.42L144.71,51.37A1,1,0,0,1,144,51.67Z"/><path class="cls-1" d="M156.66,52a1,1,0,0,1-.71-.29L143.63,39.38A1,1,0,1,1,145,38l12.33,12.32a1,1,0,0,1,0,1.42A1,1,0,0,1,156.66,52Z"/><path class="cls-1" d="M341,135.35a1,1,0,0,1-.7-.3,1,1,0,0,1,0-1.41l12.33-12.33a1,1,0,0,1,1.41,0,1,1,0,0,1,0,1.42L341.7,135.05A1,1,0,0,1,341,135.35Z"/><path class="cls-1" d="M353.66,135.68a1,1,0,0,1-.71-.29l-12.33-12.33a1,1,0,0,1,1.42-1.42L354.36,134a1,1,0,0,1-.7,1.71Z"/><path class="cls-1" d="M159.08,127.37a8.69,8.69,0,1,1,8.69-8.68A8.68,8.68,0,0,1,159.08,127.37Zm0-15.37a6.69,6.69,0,1,0,6.69,6.69A6.69,6.69,0,0,0,159.08,112Z"/><path class="cls-1" d="M219.09,65.83a1,1,0,0,1-.71-1.71l41.06-41.06a1,1,0,0,1,1.41,0,1,1,0,0,1,0,1.42L219.79,65.54A1,1,0,0,1,219.09,65.83Z"/><path class="cls-1" d="M219.09,74a1,1,0,0,1-.71-1.71l34.71-34.71A1,1,0,1,1,254.51,39L219.79,73.75A1,1,0,0,1,219.09,74Z"/><path class="cls-1" d="M256.41,36.71a1,1,0,0,1-.7-.29,1,1,0,0,1,0-1.41l1.86-1.87A1,1,0,0,1,259,34.56l-1.87,1.86A1,1,0,0,1,256.41,36.71Z"/><path class="cls-1" d="M237.75,63.59a1,1,0,0,1-.71-.29,1,1,0,0,1,0-1.42l34.71-34.71a1,1,0,0,1,1.42,0,1,1,0,0,1,0,1.41L238.46,63.3A1,1,0,0,1,237.75,63.59Z"/><path class="cls-1" d="M225.8,75.53a1,1,0,0,1-.7-.29,1,1,0,0,1,0-1.41l8.58-8.59a1,1,0,0,1,1.42,1.42l-8.59,8.58A1,1,0,0,1,225.8,75.53Z"/><path class="cls-1" d="M54.47,193l-10.41,10.4a.92.92,0,0,1-1.32,0,.94.94,0,0,1,0-1.32l10.41-10.4a.92.92,0,0,1,1.32,0A.94.94,0,0,1,54.47,193Z"/><path class="cls-1" d="M54.75,203.7a.92.92,0,0,1-1.32,0L43,193.3A.94.94,0,0,1,43,192a.92.92,0,0,1,1.32,0l10.41,10.4A.94.94,0,0,1,54.75,203.7Z"/><path class="cls-1" d="M98.47,140.35,53.15,185.67a.92.92,0,0,1-1.32,0,.94.94,0,0,1,0-1.32L97.15,139a.93.93,0,0,1,1.32,1.32Z"/><path class="cls-1" d="M101,147.28l-37.4,37.4a.77.77,0,0,1-1.1,0,.78.78,0,0,1,0-1.1l37.4-37.4a.78.78,0,0,1,1.1,1.1Z"/><path class="cls-1" d="M106.72,141.56l-2.2,2.2a.77.77,0,0,1-1.1,0,.78.78,0,0,1,0-1.1l2.2-2.2a.78.78,0,1,1,1.1,1.1Z"/><path class="cls-1" d="M115.08,142.88l-40,40a.77.77,0,0,1-1.1,0,.78.78,0,0,1,0-1.1l40-40a.78.78,0,1,1,1.1,1.1Z"/><path class="cls-1" d="M71.08,186.88,61,197a.77.77,0,0,1-1.1,0,.78.78,0,0,1,0-1.1L70,185.78a.78.78,0,1,1,1.1,1.1Z"/><path class="cls-1" d="M232.66,203.61c0,3,0,5.7-.06,8.11a40.35,40.35,0,0,0,1-7.48h0l-.89-.63Z"/><path class="cls-1" d="M294.22,114.66a3,3,0,0,0,.32-.29c2.42-2.6,3.46-4.27,3.46-8.47a7.61,7.61,0,0,0-7.61-7.61c-4.2,0-8.3,1.73-8.64,13.14v.17h0c-.11-.12-.32-3.94-.43-4.06a44.15,44.15,0,0,0-31.81-13.48c-24.44,0-37.59,24.22-37.59,48.66,0,.48,0,1,0,1.44,0,.15,0,.29,0,.44l0,1,0,.49c0,.35,0,.7.06,1.06,0,.13,0,.25,0,.38l.12,1.44a1,1,0,0,1,0,.16c0,.43.09.85.14,1.27,0,.14,0,.28,0,.41,0,.35.09.7.14,1l.06.41.18,1.2a1.55,1.55,0,0,1,0,.21c.08.48.17,1,.26,1.44,0,.06,0,.12,0,.17.08.42.16.83.25,1.24,0,.11.05.22.08.33.08.37.17.74.26,1.11,0,.1.05.2.07.3.24.94.5,1.87.77,2.79a.88.88,0,0,1,.05.15c0,.08,0,.15.07.22v0a45.81,45.81,0,0,1,1.08-5.23,43.93,43.93,0,0,1,2.54-7.06v-.08c-.52-10.54,5.53-25.06,6.22-26.1s1.24-1.38,1.56-1.38c1.38,0,1.67,3.49,2,4.34a3.59,3.59,0,0,0,3,1.88,3.26,3.26,0,0,0,1.84-.57,24,24,0,0,1,10.15-4.93c1.56-.34,3.4-.55,3.57-1.24s-1.12-1.82-2.16-2.51-.87-.69-3.2-1.29a8.48,8.48,0,0,1,5.8,2.91c3.92-.43,1.55-.58,12.09-.58s22.78,4.74,31.1,12c1.63,1.42,3,3.13,4.42,3.13s2.11-1.4,2.74-3a17.24,17.24,0,0,0,1.15-6.2c0-5-1.42-8.56-4.38-10.86m.58,9.3a1.38,1.38,0,1,1,1.38-1.38A1.38,1.38,0,0,1,294.8,124"/><path class="cls-1" d="M278.82,202.79l-.07,0a1.71,1.71,0,0,0-.63,2.35,1.73,1.73,0,0,0,1.5.86,1.79,1.79,0,0,0,.86-.23l.07,0a1.71,1.71,0,0,0,.63-2.35,1.74,1.74,0,0,0-2.36-.63"/><path class="cls-1" d="M296.82,145.58a44.25,44.25,0,0,0-78.5,3.61c.16,3.44.22,6.16.54,8.73a40.61,40.61,0,0,1,11.5-19.74,4.46,4.46,0,0,1,2.8,2.55,3.8,3.8,0,0,1-.74,4.05l-2,2.17a1.91,1.91,0,0,0-.24.32l-4.62,8-4.1,2.92a1.72,1.72,0,0,0-.42,2.37l1.53,2.24c-.88.14-1.67.24-2.2.3l-.32-.3-.2-.18a32.08,32.08,0,0,0,1.47,3.91l1.65-.23,2.93-.46a1.77,1.77,0,0,0,1.36-2.32,1.19,1.19,0,0,0-.08-.16l-2.26-3.31,3.24-2.32a.59.59,0,0,0,.17-.18l4.83-8.43,1.89-2a7.31,7.31,0,0,0,1.41-7.75,7.94,7.94,0,0,0-3.15-3.71,42.26,42.26,0,0,1,4.84-3.27A40.61,40.61,0,0,1,258,126.93L255,130.8l-11.45,4a1.71,1.71,0,0,0-1,1l-3.2,7.75a1.73,1.73,0,0,0,.19,1.66l4.67,6.54a16.62,16.62,0,0,0-2.1,2.6c-.34.48-.66.94-.88,1.2l-.58.65a16.39,16.39,0,0,0-2.78,3.86,10.32,10.32,0,0,0,.85,10.41,9.71,9.71,0,0,0,9.16,3.93,12,12,0,0,0,1.69-.34c1.48-.36,1.95-.4,2.43,0,.23.21.25.25.25,1a6.41,6.41,0,0,0,.15,1.71,5.56,5.56,0,0,0,1.46,2.39,3.72,3.72,0,0,1,.63.8c.54,1.29.3,2-.21,3.57l-.14.41c-.78,2.42.31,4.82,1.27,6.94a18.42,18.42,0,0,1,.8,1.91c1.56,4.61,2.72,5.67,3.66,6.09a3.63,3.63,0,0,0,1.51.32c2.49,0,5.09-2.31,6.28-3.78a5.25,5.25,0,0,0,1.07-2.52,2.9,2.9,0,0,1,.22-.77,5.19,5.19,0,0,1,.57-.73,6,6,0,0,0,1.41-2.35,3.84,3.84,0,0,1,1.18-1.84l.38-.41c2.3-2.5,1.71-4.41,1.08-6.44-.53-1.71.4-2.8,2.63-4.88a18.29,18.29,0,0,0,2.74-2.95c.34-.49,1.37-2,.74-3.46s-2.22-1.7-3.49-1.89a5.67,5.67,0,0,1-1.51-.36c-1.07-.7-1.73-2.16-2.36-3.57-.13-.28-.25-.55-.38-.82-.22-.48-.45-1.06-.68-1.68a14.43,14.43,0,0,0-2.56-4.76c-1.09-1.15-3.14-1.71-5-2.2a16.26,16.26,0,0,1-1.8-.56.58.58,0,0,0-.37,0,5.21,5.21,0,0,0-2.23.85,2.08,2.08,0,0,0-.61.83,19.81,19.81,0,0,1-2.08-1.27,2.45,2.45,0,0,0-.15-1.66c-1-2-4.17-1.88-4.8-1.83-.36,0-.82.05-1.3.06-.75,0-1.59.06-2.41.15l.74-2.07a1.46,1.46,0,0,1,1.37-1H253a1.78,1.78,0,0,0,1.77-1.47,1.74,1.74,0,0,0-1.71-2h-1a7.92,7.92,0,0,0-6.72,3.74L242.7,144l2.55-6.14,11.23-3.93a1.67,1.67,0,0,0,.79-.55l5-6.24a41,41,0,0,1,31.65,20.2,40,40,0,0,1,4.09,9.9l-.73.65a4.62,4.62,0,0,0-1.55,3.4h0l-1.2-3.28a4.4,4.4,0,0,0-.78-1.34l-2.64-3.08a2.68,2.68,0,0,0-2-.93H285.4a1.63,1.63,0,0,0-.75.18,2.54,2.54,0,0,0-1.07,3.71l.26.4a19.08,19.08,0,0,1-5.73,3.39l-3.59-6.85v-1.54a1.74,1.74,0,0,0-.53-1.25l-3.4-3.24a.63.63,0,0,0-.2-.13l-3.14-1.1c-1.36-.48-2.93.86-2,2.76a.61.61,0,0,0,.34.31l3.1,1.09,2.42,2.3v1.5a.58.58,0,0,0,.06.26l4.61,8.82a1.73,1.73,0,0,0,2.13.82l1.3-.48a22.58,22.58,0,0,0,8.11-5.19,1.72,1.72,0,0,0,.21-2.18l-.09-.14h1.1a.29.29,0,0,1,.22.1L291.1,159a.41.41,0,0,1,0,.09l2.49,6.86a.82.82,0,0,0,.12.2,1.91,1.91,0,0,0,1.4.64,1.72,1.72,0,0,0,1.22-.5l1.12-1.12a5.39,5.39,0,0,0,1.43-2.6,40.92,40.92,0,0,1-15.2,37.22c-1.14.9-.85,2.93,1.21,3.21a.61.61,0,0,0,.45-.12,44.26,44.26,0,0,0,11.43-57.26m-50.31,8.6a11.27,11.27,0,0,1,3.87-.54c.52,0,1,0,1.46-.07a4.45,4.45,0,0,1,.73,0,1.79,1.79,0,0,0-.09.89,1.7,1.7,0,0,0,.89,1.25c.32.18.78.48,1.25.79,1.35.9,2.88,1.92,4.32,2a2.87,2.87,0,0,0,2.35-1l.07-.07a1.87,1.87,0,0,0,.47-.56l.86.23a11.51,11.51,0,0,1,3.35,1.24,12.07,12.07,0,0,1,1.84,3.61c.26.67.51,1.3.78,1.89l.36.77c.79,1.77,1.7,3.78,3.62,5a7.18,7.18,0,0,0,2.87.87l.38.06a17.12,17.12,0,0,1-2.19,2.29c-2.14,2-4.81,4.45-3.58,8.39.58,1.86.61,2.06-.33,3.07l-.35.38a7,7,0,0,0-1.95,3.15,2.75,2.75,0,0,1-.7,1.09,7.55,7.55,0,0,0-1,1.28,5.73,5.73,0,0,0-.63,1.82,2.06,2.06,0,0,1-.36,1,9.63,9.63,0,0,1-2.18,1.92,2.8,2.8,0,0,1-1.45.58c-.18-.2-.85-1.06-1.86-4a22.4,22.4,0,0,0-.93-2.23c-.73-1.61-1.49-3.28-1.12-4.42,0-.14.08-.27.13-.4.59-1.79,1.15-3.49.11-6a5.83,5.83,0,0,0-1.26-1.79,3.35,3.35,0,0,1-.66-.87,3.4,3.4,0,0,1-.05-.87,4.31,4.31,0,0,0-1.34-3.53c-1.92-1.78-4.15-1.23-5.62-.87a11.13,11.13,0,0,1-1.26.27,6.22,6.22,0,0,1-6-2.51,6.78,6.78,0,0,1-.54-6.88,13.16,13.16,0,0,1,2.24-3l.6-.68a18.1,18.1,0,0,0,1.1-1.47,12.78,12.78,0,0,1,1.72-2.13"/><path class="cls-1" d="M229.48,177.62a1.7,1.7,0,0,0,.71.32l4.3.83a1.9,1.9,0,0,1,1.28.91,1.85,1.85,0,0,1,.17,1.57,5.24,5.24,0,0,0,0,3.32l.54,1.68a1.91,1.91,0,0,1-1.23,2.41l-1.72.55a1.72,1.72,0,0,0-1,.85,57.92,57.92,0,0,1,1,14.17,44.29,44.29,0,0,0,41.35,4.57.62.62,0,0,0,.32-.32c.83-1.91-.78-3.21-2.13-2.69a40.49,40.49,0,0,1-39-5.36l1.55-8.08.74-.24a5.4,5.4,0,0,0,3.46-6.78l-.69-2.11a.74.74,0,0,1,0-.44,5.38,5.38,0,0,0-4-7.28l-3.9-.76L223.8,169a1.72,1.72,0,0,0-1.45-.31,74.11,74.11,0,0,0,3.78,6.38Z"/><path class="cls-1" d="M231.69,194.07l-.7,3.64a40.84,40.84,0,0,1-7.87-9.78,40.24,40.24,0,0,1-5-14.33l1.79-.58q-.88-1.44-1.68-3l-.39.13c0-.33,0-.66-.05-1-.4-.82-.78-1.65-1.14-2.5s-.73-1.75-1.06-2.65a1.59,1.59,0,0,0-.07-.2c-.13-.37-.27-.76-.39-1.14,0-.09-.07-.18-.1-.27l-.3-1a44.28,44.28,0,0,0,18,42.12v-1.08a37.29,37.29,0,0,0-1-8.45"/><path class="cls-1" d="M285,182.81l-.83-3.12a1.74,1.74,0,0,0-3.19-.38c-.19.35-.36.72-.52,1.08a7.88,7.88,0,0,1-.87,1.56,3.67,3.67,0,0,1-1,.59,4.75,4.75,0,0,0-2.88,2.79,5,5,0,0,0-.11,2.43,1.57,1.57,0,0,1-.05,1v0c-.56,1.29-1.58,3.68-.14,5.71a3.58,3.58,0,0,0,2.93,1.83,3.15,3.15,0,0,0,.46,0c1.77-.29,3.09-2.11,4.18-5.74l2-6.83a1.73,1.73,0,0,0,0-.93m-5.36,6.78a10.55,10.55,0,0,1-1.32,3.1l-.11-.14c-.33-.47.17-1.63.49-2.39l0,0a4.84,4.84,0,0,0,.29-2.87,1.77,1.77,0,0,1,0-.89c.07-.21.47-.42,1.08-.72.27-.13.57-.27.87-.44Z"/><path class="cls-1" d="M260.73,144a1.72,1.72,0,1,0-1.14,3.25l.11,0a1.69,1.69,0,0,0,.58.1,1.72,1.72,0,0,0,.57-3.35Z"/><path class="cls-1" d="M232.66,203.61c0,3,0,5.7-.06,8.11a40.35,40.35,0,0,0,1-7.48h0l-.89-.63Z"/></svg>