<svg id="Layer_2" data-name="Layer 2" xmlns="http://www.w3.org/2000/svg" viewBox="0 0 255 235"><defs><style>.cls-1{fill:#fff;}</style></defs><title>아래 무언가</title><path class="cls-1" d="M214.31,58.41h0a1,1,0,0,1-1-1l.31-14.47a1,1,0,0,1,1-1h0a1,1,0,0,1,1,1l-.31,14.46A1,1,0,0,1,214.31,58.41Z"/><path class="cls-1" d="M222.09,51.34h0L207.6,51a1,1,0,0,1,0-2h0l14.47.31a1,1,0,0,1,0,2Z"/><path class="cls-1" d="M95.51,81h0a1,1,0,0,1-1-1l.31-14.14a1,1,0,0,1,1-1h0a1,1,0,0,1,1,1l-.3,14.14A1,1,0,0,1,95.51,81Z"/><path class="cls-1" d="M103.11,74.13h0L89,73.82a1,1,0,0,1,0-1.95h0l14.13.3a1,1,0,0,1,0,2Z"/><path class="cls-1" d="M33.31,166.41h0a1,1,0,0,1-1-1l.31-14.47a1,1,0,0,1,1-1h0a1,1,0,0,1,1,1l-.31,14.46A1,1,0,0,1,33.31,166.41Z"/><path class="cls-1" d="M41.09,159.34h0L26.6,159a1,1,0,0,1,0-2h0l14.47.31a1,1,0,0,1,0,2Z"/><path class="cls-1" d="M47,57.17a1,1,0,0,1-.71-1.71L58.62,43.13a1,1,0,0,1,1.41,0,1,1,0,0,1,0,1.42L47.71,56.87A1,1,0,0,1,47,57.17Z"/><path class="cls-1" d="M59.66,57.5a1,1,0,0,1-.71-.29L46.63,44.88A1,1,0,1,1,48,43.47L60.37,55.79a1,1,0,0,1,0,1.42A1,1,0,0,1,59.66,57.5Z"/><path class="cls-1" d="M221,122.85a1,1,0,0,1-.7-.3,1,1,0,0,1,0-1.41l12.33-12.33a1,1,0,0,1,1.41,0,1,1,0,0,1,0,1.42L221.7,122.55A1,1,0,0,1,221,122.85Z"/><path class="cls-1" d="M233.66,123.18a1,1,0,0,1-.71-.29l-12.33-12.33a1,1,0,1,1,1.42-1.42l12.32,12.33a1,1,0,0,1-.7,1.71Z"/><path class="cls-1" d="M65.08,121.87a8.69,8.69,0,1,1,8.69-8.68A8.68,8.68,0,0,1,65.08,121.87Zm0-15.37a6.69,6.69,0,1,0,6.69,6.69A6.69,6.69,0,0,0,65.08,106.5Z"/><path class="cls-1" d="M102.09,60.33a1,1,0,0,1-.71-1.71l41.06-41.06a1,1,0,0,1,1.41,0,1,1,0,0,1,0,1.42L102.79,60A1,1,0,0,1,102.09,60.33Z"/><path class="cls-1" d="M102.09,68.54a1,1,0,0,1-.71-1.71l34.71-34.71a1,1,0,1,1,1.42,1.42L102.79,68.25A1,1,0,0,1,102.09,68.54Z"/><path class="cls-1" d="M139.41,31.21a1,1,0,0,1-.7-.29,1,1,0,0,1,0-1.41l1.86-1.87A1,1,0,0,1,142,29.06l-1.87,1.86A1,1,0,0,1,139.41,31.21Z"/><path class="cls-1" d="M120.75,58.09a1,1,0,0,1-.71-.29,1,1,0,0,1,0-1.42l34.71-34.71a1,1,0,0,1,1.42,0,1,1,0,0,1,0,1.41L121.46,57.8A1,1,0,0,1,120.75,58.09Z"/><path class="cls-1" d="M108.8,70a1,1,0,0,1-.7-.29,1,1,0,0,1,0-1.41l8.58-8.59a1,1,0,0,1,1.42,1.42l-8.59,8.58A1,1,0,0,1,108.8,70Z"/><path class="cls-1" d="M131.46,196.55c0,2.81,0,5.4-.05,7.69a39.13,39.13,0,0,0,.89-7.1h0l-.84-.59Z"/><path class="cls-1" d="M189.88,112.14a2.68,2.68,0,0,0,.3-.28c2.3-2.46,3.28-4,3.28-8a7.22,7.22,0,0,0-7.22-7.22c-4,0-7.87,1.64-8.2,12.47v.17h0c-.1-.11-.3-3.74-.41-3.85a41.85,41.85,0,0,0-30.18-12.79c-23.19,0-35.67,23-35.67,46.17,0,.46,0,.91,0,1.37,0,.14,0,.28,0,.42,0,.32,0,.65,0,1,0,.15,0,.3,0,.46l.06,1c0,.12,0,.24,0,.36l.12,1.36c0,.06,0,.11,0,.16,0,.4.09.8.13,1.2,0,.13,0,.26,0,.39,0,.33.09.67.13,1l.06.39.18,1.13,0,.2c.08.46.16.92.25,1.37l0,.16c.08.4.16.79.25,1.17,0,.11,0,.22.07.32.08.36.16.71.25,1.06a2.86,2.86,0,0,0,.07.28c.22.89.46,1.77.73,2.64,0,0,0,.1,0,.15s0,.14.07.2v0a43.39,43.39,0,0,1,1-5,42.24,42.24,0,0,1,2.41-6.69v-.08c-.5-10,5.24-23.79,5.9-24.77s1.18-1.31,1.48-1.31c1.31,0,1.58,3.32,1.94,4.12a3.4,3.4,0,0,0,2.81,1.78,3.17,3.17,0,0,0,1.75-.53,22.72,22.72,0,0,1,9.63-4.69c1.48-.32,3.22-.52,3.39-1.17s-1.07-1.73-2.05-2.38-.82-.66-3-1.23a8.07,8.07,0,0,1,5.51,2.76c3.71-.4,1.46-.55,11.47-.55s21.61,4.5,29.51,11.38c1.55,1.35,2.88,3,4.19,3s2-1.33,2.6-2.88a16.23,16.23,0,0,0,1.1-5.89c0-4.7-1.35-8.12-4.16-10.3m.55,8.82a1.31,1.31,0,1,1,1.31-1.31,1.32,1.32,0,0,1-1.31,1.31"/><path class="cls-1" d="M175.26,195.77l-.06,0a1.63,1.63,0,0,0-.6,2.23,1.66,1.66,0,0,0,1.42.81,1.63,1.63,0,0,0,.82-.22l.07,0a1.62,1.62,0,0,0,.59-2.23,1.64,1.64,0,0,0-2.24-.59"/><path class="cls-1" d="M192.34,141.48a42,42,0,0,0-74.49,3.43c.16,3.26.22,5.84.51,8.28a38.58,38.58,0,0,1,10.92-18.74,4.3,4.3,0,0,1,2.66,2.43,3.6,3.6,0,0,1-.71,3.84l-1.93,2.06a1.66,1.66,0,0,0-.22.3l-4.38,7.61-3.89,2.78a1.62,1.62,0,0,0-.41,2.24l1.46,2.13c-.84.13-1.59.23-2.09.28l-.3-.28-.19-.17a30.38,30.38,0,0,0,1.39,3.71l1.57-.22,2.78-.44a1.68,1.68,0,0,0,1.28-2.2.51.51,0,0,0-.07-.15l-2.14-3.14,3.07-2.2a.52.52,0,0,0,.16-.17l4.58-8,1.8-1.92a6.93,6.93,0,0,0,1.34-7.35,7.52,7.52,0,0,0-3-3.52,38.88,38.88,0,0,1,4.59-3.11,38.41,38.41,0,0,1,18.9-5.17l-2.93,3.67-10.86,3.81a1.66,1.66,0,0,0-1,.92l-3,7.36a1.68,1.68,0,0,0,.18,1.58l4.43,6.2a15.35,15.35,0,0,0-2,2.47c-.33.46-.63.89-.84,1.14l-.55.62a15.13,15.13,0,0,0-2.64,3.66,9.77,9.77,0,0,0,.81,9.88,9.2,9.2,0,0,0,8.69,3.73,14.6,14.6,0,0,0,1.6-.32c1.41-.35,1.85-.38,2.31,0,.22.2.24.24.23.94a6.19,6.19,0,0,0,.15,1.62,5.22,5.22,0,0,0,1.38,2.27,3.36,3.36,0,0,1,.6.76c.51,1.22.29,1.9-.2,3.39,0,.13-.08.26-.13.39-.74,2.3.29,4.57,1.21,6.58.29.65.57,1.27.76,1.81,1.47,4.38,2.58,5.38,3.46,5.79a3.47,3.47,0,0,0,1.43.3c2.37,0,4.84-2.2,6-3.59a5,5,0,0,0,1-2.39,3.12,3.12,0,0,1,.21-.73,4.65,4.65,0,0,1,.54-.69,5.66,5.66,0,0,0,1.34-2.23,3.62,3.62,0,0,1,1.12-1.75l.36-.38c2.18-2.38,1.62-4.2,1-6.12-.51-1.62.37-2.65,2.49-4.63a17.82,17.82,0,0,0,2.61-2.8c.32-.47,1.3-1.88.69-3.29s-2.1-1.6-3.31-1.79a4.92,4.92,0,0,1-1.43-.34,7.66,7.66,0,0,1-2.24-3.38l-.36-.79c-.21-.45-.42-1-.65-1.59a13.85,13.85,0,0,0-2.42-4.51c-1-1.1-3-1.63-4.71-2.09a15.38,15.38,0,0,1-1.71-.53.48.48,0,0,0-.35-.05,5,5,0,0,0-2.12.8,2.23,2.23,0,0,0-.58.79,20.59,20.59,0,0,1-2-1.2,2.37,2.37,0,0,0-.14-1.58c-.92-1.94-4-1.78-4.56-1.73l-1.23.06c-.72,0-1.51,0-2.29.14l.71-2a1.36,1.36,0,0,1,1.3-.91h2.78a1.68,1.68,0,0,0,1.67-1.39,1.64,1.64,0,0,0-1.62-1.88h-1a7.5,7.5,0,0,0-6.37,3.54L141,140l2.42-5.83,10.66-3.72a1.64,1.64,0,0,0,.74-.53l4.74-5.92a38.9,38.9,0,0,1,30,19.17,38.35,38.35,0,0,1,3.88,9.39l-.7.62a4.39,4.39,0,0,0-1.47,3.23h0l-1.14-3.12a4.1,4.1,0,0,0-.74-1.26l-2.51-2.93a2.52,2.52,0,0,0-1.92-.88H181.5a1.45,1.45,0,0,0-.7.17,2.41,2.41,0,0,0-1,3.52l.25.38a18.21,18.21,0,0,1-5.44,3.21l-3.4-6.49V147.5a1.66,1.66,0,0,0-.51-1.18l-3.23-3.08a.62.62,0,0,0-.19-.12l-3-1c-1.3-.46-2.79.82-1.94,2.61a.54.54,0,0,0,.32.29l3,1,2.29,2.19v1.42a.5.5,0,0,0,.06.24l4.37,8.38a1.63,1.63,0,0,0,2,.77l1.23-.45a21.31,21.31,0,0,0,7.7-4.93,1.65,1.65,0,0,0,.21-2.07l-.09-.13h1a.28.28,0,0,1,.21.1l2.25,2.64a.14.14,0,0,1,.05.08l2.37,6.51a.52.52,0,0,0,.11.19,1.82,1.82,0,0,0,1.33.61,1.64,1.64,0,0,0,1.16-.48L193,160a5.19,5.19,0,0,0,1.36-2.47,38.84,38.84,0,0,1-14.42,35.32c-1.08.85-.81,2.78,1.14,3.05a.6.6,0,0,0,.43-.11,42,42,0,0,0,10.84-54.34m-47.73,8.16a10.41,10.41,0,0,1,3.66-.51l1.39-.07a4.09,4.09,0,0,1,.7,0,1.52,1.52,0,0,0-.09.84,1.63,1.63,0,0,0,.84,1.19c.31.17.74.45,1.19.75,1.28.85,2.74,1.82,4.1,1.9a2.74,2.74,0,0,0,2.23-.92l.07-.07a1.78,1.78,0,0,0,.44-.53l.82.22a11,11,0,0,1,3.18,1.17,11.58,11.58,0,0,1,1.75,3.43c.24.64.48,1.24.74,1.79l.33.74a10.26,10.26,0,0,0,3.44,4.77,6.75,6.75,0,0,0,2.72.82l.36.06a15.45,15.45,0,0,1-2.08,2.17c-2,1.89-4.56,4.23-3.39,8,.55,1.76.57,1.95-.31,2.91l-.34.36a6.76,6.76,0,0,0-1.85,3,2.56,2.56,0,0,1-.66,1,7.55,7.55,0,0,0-.92,1.21,5.46,5.46,0,0,0-.6,1.74,1.89,1.89,0,0,1-.34,1,9.59,9.59,0,0,1-2.07,1.83,2.75,2.75,0,0,1-1.37.54c-.18-.18-.81-1-1.77-3.83a22.44,22.44,0,0,0-.88-2.11c-.7-1.54-1.42-3.12-1.07-4.2l.12-.38c.56-1.7,1.09-3.31.11-5.65a5.91,5.91,0,0,0-1.19-1.69,3.27,3.27,0,0,1-.63-.83,3.56,3.56,0,0,1-.05-.83,4.07,4.07,0,0,0-1.27-3.34c-1.82-1.69-3.94-1.17-5.34-.83a9.09,9.09,0,0,1-1.19.25,5.9,5.9,0,0,1-5.65-2.37,6.46,6.46,0,0,1-.51-6.54,12.33,12.33,0,0,1,2.13-2.87l.57-.65c.32-.37.67-.86,1-1.39a11.86,11.86,0,0,1,1.64-2"/><path class="cls-1" d="M128.44,171.88a1.55,1.55,0,0,0,.68.3l4.07.8a1.81,1.81,0,0,1,1.38,2.34,5,5,0,0,0,0,3.16l.52,1.59a1.81,1.81,0,0,1-1.17,2.28l-1.63.53a1.63,1.63,0,0,0-.95.81,54.69,54.69,0,0,1,1,13.44,42,42,0,0,0,39.24,4.34.59.59,0,0,0,.31-.31c.78-1.81-.74-3-2-2.54a38.47,38.47,0,0,1-37-5.09l1.47-7.67.7-.23a5.11,5.11,0,0,0,3.28-6.43l-.65-2a.67.67,0,0,1,0-.42,5.1,5.1,0,0,0-3.76-6.91l-3.7-.72-7.14-5.43a1.66,1.66,0,0,0-1.38-.29c.93,1.78,2.1,3.76,3.6,6Z"/><path class="cls-1" d="M130.54,187.49l-.67,3.45a39.08,39.08,0,0,1-7.47-9.27,38.41,38.41,0,0,1-4.76-13.6l1.69-.55q-.84-1.36-1.59-2.82l-.37.12c0-.31,0-.62-.05-.94-.38-.77-.74-1.56-1.09-2.37s-.68-1.66-1-2.52l-.07-.18c-.13-.36-.25-.72-.38-1.09,0-.08-.05-.17-.08-.25-.1-.3-.2-.6-.29-.9a42,42,0,0,0,17,40v-1a35.34,35.34,0,0,0-.92-8"/><path class="cls-1" d="M181.17,176.81l-.79-3a1.65,1.65,0,0,0-3-.36c-.18.33-.34.68-.5,1A7.38,7.38,0,0,1,176,176a3.7,3.7,0,0,1-1,.56,4.55,4.55,0,0,0-2.73,2.65,4.88,4.88,0,0,0-.11,2.3,1.43,1.43,0,0,1,0,1v0c-.53,1.22-1.5,3.49-.14,5.42a3.43,3.43,0,0,0,2.79,1.73,3,3,0,0,0,.44,0c1.67-.27,2.93-2,4-5.45l1.93-6.48a1.64,1.64,0,0,0,0-.88m-5.09,6.43a10.07,10.07,0,0,1-1.25,2.94.85.85,0,0,1-.1-.14c-.32-.44.15-1.53.46-2.26l0,0a4.55,4.55,0,0,0,.27-2.72,1.69,1.69,0,0,1,0-.84c.07-.21.45-.41,1-.68.26-.13.54-.26.82-.43Z"/><path class="cls-1" d="M158.1,140A1.63,1.63,0,1,0,157,143l.11,0a1.51,1.51,0,0,0,.55.09,1.63,1.63,0,0,0,.54-3.17Z"/><path class="cls-1" d="M131.46,196.55c0,2.81,0,5.4-.05,7.69a39.13,39.13,0,0,0,.89-7.1h0l-.84-.59Z"/></svg>