<?xml version="1.0" encoding="utf-8"?>
<!-- Generator: Adobe Illustrator 24.0.2, SVG Export Plug-In . SVG Version: 6.00 Build 0)  -->
<svg version="1.1" id="레이어_1" xmlns="http://www.w3.org/2000/svg" xmlns:xlink="http://www.w3.org/1999/xlink" x="0px"
	 y="0px" viewBox="0 0 512 512" style="enable-background:new 0 0 512 512;" xml:space="preserve">
<style type="text/css">
	.st0{fill-rule:evenodd;clip-rule:evenodd;fill:#191313;}
</style>
<path class="st0" d="M256,0C114.7,0,0.1,117.5,0.1,262.5c0,116,73.3,214.3,175.1,249.1c12.8,2.4,17.5-5.7,17.5-12.7
	c0-6.2-0.2-22.7-0.3-44.6c-71.2,15.9-86.2-35.2-86.2-35.2c-11.6-30.3-28.4-38.4-28.4-38.4c-23.2-16.3,1.8-16,1.8-16
	c25.7,1.9,39.2,27,39.2,27c22.8,40.1,59.9,28.5,74.5,21.8c2.3-17,8.9-28.5,16.3-35.1c-56.8-6.6-116.6-29.1-116.6-129.7
	c0-28.7,10-52.1,26.4-70.4c-2.6-6.6-11.4-33.3,2.5-69.5c0,0,21.5-7.1,70.4,26.9c20.4-5.8,42.3-8.7,64.1-8.8
	c21.7,0.1,43.6,3,64.1,8.8c48.9-34,70.3-26.9,70.3-26.9c14,36.1,5.2,62.8,2.5,69.5c16.4,18.3,26.3,41.8,26.3,70.4
	c0,100.8-59.9,123-116.9,129.5c9.2,8.1,17.4,24.1,17.4,48.6c0,35.1-0.3,63.4-0.3,72c0,7,4.6,15.2,17.6,12.6
	c101.6-34.8,174.9-133.1,174.9-249C512.1,117.5,397.4,0,256,0z"/>
</svg>
