<?xml version="1.0" encoding="utf-8"?>
<!-- Generator: Adobe Illustrator 24.1.1, SVG Export Plug-In . SVG Version: 6.00 Build 0)  -->
<svg version="1.1" id="레이어_1" xmlns="http://www.w3.org/2000/svg" xmlns:xlink="http://www.w3.org/1999/xlink" x="0px"
	 y="0px" viewBox="0 0 512 512" style="enable-background:new 0 0 512 512;" xml:space="preserve">
<style type="text/css">
	.st0{fill-rule:evenodd;clip-rule:evenodd;fill:#FFFFFF;}
	.st1{fill-rule:evenodd;clip-rule:evenodd;fill:#191313;}
</style>
<path class="st0" d="M457.7,253.1c0,35.3-27.3,69.5-40.3,100.2c-28.1,66.3-8.8,120.8-77.3,144.6C313.8,507,285.5,512,256,512
	c-30.7,0-60.2-5.4-87.5-15.3c-58.9-21.4-68.6-39.8-98.3-94.2c-19.8-36.4-0.7-64-0.7-108.4c0-56.5-1.9-130.1,29.1-172.4
	c46.6-63.6,72.4-62.5,157.3-62.5c90,0,123.5,9.8,169.1,80.1C451.2,179.4,457.7,201.8,457.7,253.1z"/>
<path class="st1" d="M255.8,0C114.5,0-0.1,117.5-0.1,262.5c0,116,73.3,214.3,175.1,249.1c2,0.4,3.8,0.5,5.4,0.4
	c8.7-0.5,12.1-7.2,12.1-13.1c0-6.2-0.2-22.7-0.3-44.6C121,470.2,106,419.1,106,419.1c-11.6-30.3-28.4-38.4-28.4-38.4
	c-23.2-16.3,1.8-16,1.8-16c25.7,1.9,39.2,27,39.2,27c22.8,40.1,59.9,28.5,74.5,21.8c2.3-17,8.9-28.5,16.3-35.1
	c-56.8-6.6-116.6-29.1-116.6-129.7c0-28.7,10-52.1,26.4-70.4c-2.6-6.6-11.4-33.3,2.5-69.5c0,0,21.5-7.1,70.4,26.9
	c20.4-5.8,42.3-8.7,64.1-8.8c21.7,0.1,43.6,3,64.1,8.8c48.9-34,70.3-26.9,70.3-26.9c14,36.1,5.2,62.8,2.5,69.5
	c16.4,18.3,26.3,41.8,26.3,70.4c0,100.8-59.9,123-116.9,129.5c9.2,8.1,17.4,24.1,17.4,48.6c0,35.1-0.3,63.4-0.3,72
	c0,6.1,3.5,13.1,13,13.1c1.4,0,2.9-0.2,4.6-0.5c101.6-34.8,174.9-133.1,174.9-249C511.9,117.5,397.2,0,255.8,0z"/>
</svg>
