<svg id="Layer_1" data-name="Layer 1" xmlns="http://www.w3.org/2000/svg" viewBox="0 0 468 382"><defs><style>.cls-1{fill:#fff;}</style></defs><title>Tablet Main</title><path class="cls-1" d="M447.4,284.49h0a2,2,0,0,1-2-2l.34-16a2,2,0,1,1,4,.09l-.34,16A2,2,0,0,1,447.4,284.49Z"/><path class="cls-1" d="M456,276.67h0l-16-.34a2,2,0,0,1-2-2,2,2,0,0,1,2-2l16,.34a2,2,0,0,1,0,4Z"/><path class="cls-1" d="M119.4,240.49h-.05a2,2,0,0,1-1.95-2l.34-16a2,2,0,1,1,4,.09l-.34,16A2,2,0,0,1,119.4,240.49Z"/><path class="cls-1" d="M128,232.67h0l-16-.34a2,2,0,0,1,.08-4l16,.34a2,2,0,0,1,0,4Z"/><path class="cls-1" d="M177.65,151.53a2,2,0,0,1-1.42-3.41l9.54-9.54a2,2,0,0,1,2.83,2.82L179.06,151A2,2,0,0,1,177.65,151.53Z"/><path class="cls-1" d="M187.45,151.79a2,2,0,0,1-1.42-.59l-9.54-9.54a2,2,0,0,1,2.83-2.83l9.54,9.55a2,2,0,0,1-1.41,3.41Z"/><path class="cls-1" d="M429,179a10,10,0,1,1,10-10A10,10,0,0,1,429,179Zm0-17a7,7,0,1,0,7,7A7,7,0,0,0,429,162Z"/><path class="cls-1" d="M174,312a10,10,0,1,1,10-10A10,10,0,0,1,174,312Zm0-17a7,7,0,1,0,7,7A7,7,0,0,0,174,295Z"/><path class="cls-1" d="M350.16,97.21a1.5,1.5,0,0,1-1.5-1.5V78.46a1.5,1.5,0,1,1,3,0V95.71A1.5,1.5,0,0,1,350.16,97.21Z"/><path class="cls-1" d="M359.25,88.58H342a1.5,1.5,0,0,1,0-3h17.25a1.5,1.5,0,0,1,0,3Z"/><path class="cls-1" d="M358.7,69.38a1.5,1.5,0,0,1-1.06-2.56l56.74-56.74a1.5,1.5,0,0,1,2.12,2.12L359.76,68.94A1.49,1.49,0,0,1,358.7,69.38Z"/><path class="cls-1" d="M358.7,80.47a1.25,1.25,0,0,1-.88-2.13l48-48a1.25,1.25,0,0,1,1.77,0,1.27,1.27,0,0,1,0,1.77l-48,48A1.28,1.28,0,0,1,358.7,80.47Z"/><path class="cls-1" d="M410.28,28.89a1.25,1.25,0,0,1-.88-2.13L412,24.18a1.25,1.25,0,0,1,1.77,0,1.27,1.27,0,0,1,0,1.77l-2.58,2.58A1.28,1.28,0,0,1,410.28,28.89Z"/><path class="cls-1" d="M384.49,66a1.25,1.25,0,0,1-.88-2.13l48-48a1.25,1.25,0,0,1,1.77,0,1.27,1.27,0,0,1,0,1.77l-48,48A1.28,1.28,0,0,1,384.49,66Z"/><path class="cls-1" d="M368,82.54a1.26,1.26,0,0,1-.89-2.14L379,68.54a1.25,1.25,0,0,1,1.76,1.77L368.87,82.17A1.21,1.21,0,0,1,368,82.54Z"/><path class="cls-1" d="M27,368.12a1.5,1.5,0,0,1-1.06-2.56l12.79-12.73A1.5,1.5,0,0,1,40.85,355L28.06,367.68A1.47,1.47,0,0,1,27,368.12Z"/><path class="cls-1" d="M40.1,368.5a1.49,1.49,0,0,1-1.06-.44L26.31,355.27a1.5,1.5,0,0,1,2.13-2.12l12.72,12.79a1.49,1.49,0,0,1,0,2.12A1.51,1.51,0,0,1,40.1,368.5Z"/><path class="cls-1" d="M38.2,346.39a1.53,1.53,0,0,1-1.07-.44,1.5,1.5,0,0,1,0-2.12l55.7-55.41A1.5,1.5,0,1,1,95,290.55L39.26,346A1.52,1.52,0,0,1,38.2,346.39Z"/><path class="cls-1" d="M51.14,345.1a1.26,1.26,0,0,1-.88-2.14l46-45.72A1.25,1.25,0,0,1,98,299L52,344.73A1.25,1.25,0,0,1,51.14,345.1Z"/><path class="cls-1" d="M101.34,295a1.25,1.25,0,0,1-.88-2.13l2.7-2.7a1.25,1.25,0,0,1,1.76,1.77l-2.69,2.7A1.28,1.28,0,0,1,101.34,295Z"/><path class="cls-1" d="M65.17,343a1.26,1.26,0,0,1-.88-2.14l49.21-48.95a1.25,1.25,0,1,1,1.76,1.77L66.05,342.61A1.21,1.21,0,0,1,65.17,343Z"/><path class="cls-1" d="M47.87,360.19a1.25,1.25,0,0,1-.88-2.14l12.43-12.37a1.26,1.26,0,0,1,1.77,0,1.24,1.24,0,0,1,0,1.76L48.75,359.83A1.24,1.24,0,0,1,47.87,360.19Z"/></svg>