<svg id="Layer_1" data-name="Layer 1" xmlns="http://www.w3.org/2000/svg" viewBox="0 0 328 136"><defs><style>.cls-1{fill:#fff;}</style></defs><title>별</title><path class="cls-1" d="M174.4,20.49h-.05a2,2,0,0,1-1.95-2l.34-16a2,2,0,0,1,2-2,2,2,0,0,1,2,2.05l-.34,16A2,2,0,0,1,174.4,20.49Z"/><path class="cls-1" d="M183,12.67h0l-16-.34a2,2,0,0,1,.08-4l16,.34a2,2,0,0,1,0,4Z"/><path class="cls-1" d="M2,77.39a2,2,0,0,1-1.41-.58A2,2,0,0,1,.58,74L16.63,57.92a2,2,0,1,1,2.83,2.83l-16,16.06A2,2,0,0,1,2,77.39Z"/><path class="cls-1" d="M18.48,77.83a2,2,0,0,1-1.41-.59L1,61.18a2,2,0,0,1,2.83-2.83L19.9,74.41a2,2,0,0,1-1.42,3.42Z"/><path class="cls-1" d="M239,112.52a2,2,0,0,1-1.41-3.41l11.18-11.18a2,2,0,1,1,2.82,2.83l-11.18,11.18A2,2,0,0,1,239,112.52Z"/><path class="cls-1" d="M250.48,112.83a2,2,0,0,1-1.41-.59l-11.18-11.18a2,2,0,0,1,2.83-2.83l11.18,11.18a2,2,0,0,1-1.42,3.42Z"/><path class="cls-1" d="M105,128a10,10,0,1,1,10-10A10,10,0,0,1,105,128Zm0-17a7,7,0,1,0,7,7A7,7,0,0,0,105,111Z"/><path class="cls-1" d="M316,52a12,12,0,1,1,12-12A12,12,0,0,1,316,52Zm0-21a9,9,0,1,0,9,9A9,9,0,0,0,316,31Z"/></svg>