<svg id="Layer_2" data-name="Layer 2" xmlns="http://www.w3.org/2000/svg" viewBox="0 0 200 200"><defs><style>.cls-1{fill:#141516;}</style></defs><title>Apply ico-03</title><path class="cls-1" d="M143.79,187H55.18a4.62,4.62,0,0,1-4.62-4.62V55.66A4.62,4.62,0,0,1,55.18,51h88.61a4.62,4.62,0,0,1,4.62,4.62V182.37A4.62,4.62,0,0,1,143.79,187ZM55.18,52.68a3,3,0,0,0-3,3V182.37a3,3,0,0,0,3,3h88.61a3,3,0,0,0,3-3V55.66a3,3,0,0,0-3-3Z"/><path class="cls-1" d="M150.37,180.41H147v-1.64h3.36a3,3,0,0,0,3-3V49.08a3,3,0,0,0-3-3H61.76a3,3,0,0,0-3,3v3.16H57.14V49.08a4.63,4.63,0,0,1,4.62-4.62h88.61A4.63,4.63,0,0,1,155,49.08V175.79A4.63,4.63,0,0,1,150.37,180.41Z"/><path class="cls-1" d="M99.35,116.55a25.49,25.49,0,1,1,25.49-25.49A25.52,25.52,0,0,1,99.35,116.55Zm0-49.34a23.85,23.85,0,1,0,23.84,23.85A23.88,23.88,0,0,0,99.35,67.21Z"/><path class="cls-1" d="M99.07,97.91c-4.53,0-8.22-4.3-8.22-9.59s3.69-9.6,8.22-9.6,8.23,4.31,8.23,9.6S103.61,97.91,99.07,97.91Zm0-17.54c-3.62,0-6.57,3.56-6.57,7.95s3,8,6.57,8,6.58-3.57,6.58-8S102.7,80.37,99.07,80.37Z"/><path class="cls-1" d="M99.35,116.55a25.45,25.45,0,0,1-16.94-6.45l-.24-.21,0-.32a8.82,8.82,0,0,1-.06-1c0-6.8,7.62-12.33,17-12.33s17,5.53,17,12.33a9.63,9.63,0,0,1-.14,1.57l-.05.29-.24.2A25.5,25.5,0,0,1,99.35,116.55Zm-15.61-7.47a23.84,23.84,0,0,0,30.61.51,6.78,6.78,0,0,0,.07-1c0-5.89-6.88-10.69-15.35-10.69s-15.35,4.8-15.35,10.69C83.72,108.75,83.73,108.91,83.74,109.08Z"/><circle class="cls-1" cx="70.57" cy="131.35" r="2.19"/><circle class="cls-1" cx="70.57" cy="145.05" r="2.19"/><circle class="cls-1" cx="70.57" cy="158.76" r="2.19"/><rect class="cls-1" x="78.24" y="130.53" width="29.6" height="1.64"/><rect class="cls-1" x="78.24" y="144.51" width="14.8" height="1.64"/><rect class="cls-1" x="112.23" y="130.25" width="10.42" height="1.64"/><rect class="cls-1" x="97.43" y="144.51" width="30.15" height="1.64"/><rect class="cls-1" x="78.24" y="158.21" width="7.13" height="1.64"/><rect class="cls-1" x="116.07" y="158.21" width="7.13" height="1.64"/><rect class="cls-1" x="89.75" y="158.21" width="22.48" height="1.64"/><path class="cls-1" d="M32.46,37.66a7,7,0,1,1,7-7A7,7,0,0,1,32.46,37.66Zm0-11.84a4.88,4.88,0,1,0,4.87,4.87A4.88,4.88,0,0,0,32.46,25.82Z"/><path class="cls-1" d="M181.44,92a1,1,0,0,1-.73-1.78l9.49-9.49a1,1,0,0,1,1.47,0,1,1,0,0,1,0,1.48l-9.49,9.49A1,1,0,0,1,181.44,92Z"/><path class="cls-1" d="M191.19,92.3a1,1,0,0,1-.74-.31L181,82.5A1,1,0,0,1,181,81a1,1,0,0,1,1.48,0l9.49,9.49a1,1,0,0,1-.74,1.78Z"/><path class="cls-1" d="M154.57,23.72h0a1,1,0,0,1-1-1.06l.24-11.14a1,1,0,0,1,1.05-1h0a1,1,0,0,1,1,1.07l-.24,11.13A1,1,0,0,1,154.57,23.72Z"/><path class="cls-1" d="M160.56,18.28h0L149.4,18a1,1,0,0,1,0-2.08h0l11.14.23a1,1,0,0,1,0,2.09Z"/><path class="cls-1" d="M18.11,94.74h0a1.05,1.05,0,0,1-1-1.07l.24-11.14a1,1,0,0,1,1-1h0a1,1,0,0,1,1,1.07l-.24,11.13A1.05,1.05,0,0,1,18.11,94.74Z"/><path class="cls-1" d="M24.1,89.29h0l-11.14-.24a1,1,0,0,1-1-1.06A1.05,1.05,0,0,1,13,87h0l11.14.24a1,1,0,0,1,0,2.08Z"/><path class="cls-1" d="M50.56,181.42H19.23a1,1,0,0,1,0-2.09H50.56a1,1,0,0,1,0,2.09Z"/><path class="cls-1" d="M33.85,174.81H3.22a1,1,0,1,1,0-2.09H33.85a1,1,0,1,1,0,2.09Z"/><path class="cls-1" d="M176.57,178.29h-23a1,1,0,1,1,0-2.09h23a1,1,0,0,1,0,2.09Z"/><path class="cls-1" d="M197.46,185.25H161.25a1,1,0,0,1,0-2.09h36.21a1,1,0,0,1,0,2.09Z"/><rect class="cls-1" x="109.74" y="170.98" width="9.05" height="1.39"/><rect class="cls-1" x="123.66" y="170.98" width="16.01" height="1.39"/></svg>