<svg xmlns="http://www.w3.org/2000/svg" viewBox="0 0 1280 450"><defs><style>.cls-1{fill:#fff;}</style></defs><title>Award 2</title><g id="Layer_3" data-name="Layer 3"><path class="cls-1" d="M1209.25,415.79h0a2.29,2.29,0,0,1-2.24-2.34l.47-24.42a2.29,2.29,0,0,1,2.28-2.25h0a2.31,2.31,0,0,1,2.25,2.34l-.47,24.42A2.29,2.29,0,0,1,1209.25,415.79Z"/><path class="cls-1" d="M1222.36,403.82h0l-24.43-.47a2.29,2.29,0,0,1,0-4.58h0l24.43.47a2.29,2.29,0,0,1,0,4.58Z"/><path class="cls-1" d="M1163.12,276.58a1.26,1.26,0,0,1-.9-.37,1.27,1.27,0,0,1,0-1.81l11.61-11.67a1.28,1.28,0,0,1,1.81,1.81L1164,276.2A1.29,1.29,0,0,1,1163.12,276.58Z"/><path class="cls-1" d="M1175.07,276.87a1.27,1.27,0,0,1-.9-.38l-11.67-11.6a1.28,1.28,0,0,1,1.81-1.82L1176,274.68a1.28,1.28,0,0,1-.9,2.19Z"/><path class="cls-1" d="M1016.29,371.2a7.2,7.2,0,1,1,7.18-7.21A7.21,7.21,0,0,1,1016.29,371.2Zm0-12.23a5,5,0,1,0,5,5A5.05,5.05,0,0,0,1016.26,359Z"/><path class="cls-1" d="M1105.33,403.66l-16.69,16.76a1.5,1.5,0,1,1-2.12-2.11l16.69-16.77a1.5,1.5,0,0,1,2.12,2.12Z"/><path class="cls-1" d="M1105.82,420.84a1.5,1.5,0,0,1-2.12,0l-16.76-16.69a1.5,1.5,0,1,1,2.11-2.12l16.77,16.69A1.49,1.49,0,0,1,1105.82,420.84Z"/><path class="cls-1" d="M1175.85,318.87l-72.66,73a1.5,1.5,0,1,1-2.13-2.11l72.67-73a1.5,1.5,0,1,1,2.12,2.12Z"/><path class="cls-1" d="M1179.94,330l-60,60.24a1.25,1.25,0,0,1-1.78-1.76l60-60.24a1.25,1.25,0,0,1,1.77,1.76Z"/><path class="cls-1" d="M1189.11,320.78l-3.52,3.54a1.25,1.25,0,1,1-1.77-1.76l3.52-3.54a1.25,1.25,0,1,1,1.77,1.76Z"/><path class="cls-1" d="M1202.55,322.87l-64.2,64.49a1.25,1.25,0,1,1-1.77-1.76l64.2-64.49a1.25,1.25,0,1,1,1.77,1.76Z"/><path class="cls-1" d="M1132,393.74,1115.78,410a1.25,1.25,0,1,1-1.77-1.76l16.22-16.3a1.25,1.25,0,1,1,1.77,1.76Z"/></g></svg>