<?xml version="1.0" encoding="utf-8"?>
<!-- Generator: Adobe Illustrator 24.1.1, SVG Export Plug-In . SVG Version: 6.00 Build 0)  -->
<svg version="1.1" id="Layer_1" xmlns="http://www.w3.org/2000/svg" xmlns:xlink="http://www.w3.org/1999/xlink" x="0px" y="0px"
	 viewBox="0 0 29 29" style="enable-background:new 0 0 29 29;" xml:space="preserve">
<style type="text/css">
	.st0{opacity:0.75;fill:#FFFFFF;}
</style>
<path class="st0" d="M17.2,14.5L28.4,3.3c0.7-0.7,0.7-2,0-2.7c-0.7-0.7-2-0.7-2.7,0L14.5,11.8L3.3,0.6c-0.7-0.7-2-0.7-2.7,0
	c-0.7,0.7-0.7,2,0,2.7l11.2,11.2L0.6,25.7c-0.7,0.7-0.7,2,0,2.7s2,0.7,2.7,0l11.2-11.2l11.2,11.2c0.7,0.7,2,0.7,2.7,0
	c0.7-0.7,0.7-2,0-2.7L17.2,14.5z"/>
</svg>
