<svg xmlns="http://www.w3.org/2000/svg" viewBox="0 0 319.02 319.02">
    <defs>
        <style>.cls-1{fill:#ffffff;}.cls-2{fill:none;stroke:#ffffff;stroke-linecap:square;stroke-miterlimit:10;stroke-width:2px;}.cls-3{fill:#fff;}</style>
    </defs>
    <title>Design ico</title>
    <g id="Layer_2" data-name="Layer 2">
        <path class="cls-1" d="M187.61,216a1,1,0,0,1-1-.9l-2.1-21a1,1,0,0,1,.45-.94,1,1,0,0,1,1,0l20,11.55a1,1,0,0,1,0,1.75l-17.85,9.45A1.12,1.12,0,0,1,187.61,216Zm-.91-20.15,1.76,17.57,14.94-7.91Z"/>
        <path class="cls-1" d="M205.62,205.69a1,1,0,0,1-.29-.05,1,1,0,0,1-.66-1.25l4.62-15a1.22,1.22,0,0,1,.07-.17l39.52-76c.05-.8.15-4.24-1.91-4.92a4.29,4.29,0,0,0-4.19.75l-45.35,72.78a1.71,1.71,0,0,1-.11.14l-10.57,11.62a1,1,0,1,1-1.48-1.34l10.51-11.55,45.38-72.82a.62.62,0,0,1,.14-.18,6.26,6.26,0,0,1,6.3-1.3c3.9,1.3,3.28,7,3.26,7.22a1.1,1.1,0,0,1-.11.35l-39.57,76.13L206.58,205A1,1,0,0,1,205.62,205.69Z"/>
        <path class="cls-1" d="M200.51,192a1,1,0,0,1-.48-.12,1,1,0,0,1-.52-.88.94.94,0,0,1,.13-.48l9.68-17.4a1,1,0,0,1,1.36-.39,1,1,0,0,1,.51.87,1,1,0,0,1-.12.49l-9.68,17.4A1,1,0,0,1,200.51,192Z"/>
        <path class="cls-1" d="M253.51,180.79a1,1,0,0,1-1-1V142.62a4.11,4.11,0,0,0-4.1-4.11H237.6a1,1,0,0,1,0-2h10.81a6.11,6.11,0,0,1,6.1,6.11v37.17A1,1,0,0,1,253.51,180.79Z"/>
        <path class="cls-1" d="M247.73,264H76.3c-3.74,0-6.79-2.74-6.79-6.1V142.62c0-3.37,3-6.11,6.79-6.11H222a1,1,0,0,1,0,2H76.3c-2.64,0-4.79,1.84-4.79,4.11V257.91c0,2.26,2.15,4.1,4.79,4.1H247.73c2.64,0,4.78-1.84,4.78-4.1V179.79a1,1,0,1,1,2,0v78.12C254.51,261.27,251.47,264,247.73,264Z"/>
        <path class="cls-1" d="M240.51,184.94a1,1,0,0,1-1-1V153.67a3.12,3.12,0,0,0-3.08-3.16H232.6a1,1,0,0,1,0-2h3.83a5.13,5.13,0,0,1,5.08,5.16v30.27A1,1,0,0,1,240.51,184.94Z"/>
        <path class="cls-1" d="M236.43,252.7H115.59a5.12,5.12,0,0,1-5.08-5.16V153.67a5.13,5.13,0,0,1,5.08-5.16H216a1,1,0,1,1,0,2H115.59a3.12,3.12,0,0,0-3.08,3.16v93.87a3.12,3.12,0,0,0,3.08,3.16H236.43a3.12,3.12,0,0,0,3.08-3.16v-63.6a1,1,0,0,1,2,0v63.6A5.12,5.12,0,0,1,236.43,252.7Z"/>
        <path class="cls-1" d="M129.56,200.86c5.36-3.6,12-9.87,18.5-11.05,10.56-1.92,10.57,9.87,12.24,16.69,3.11,12.68,17.17,11.69,27.22,9.5,1.89-.41,1.09-3.3-.8-2.89-8.91,1.95-21.12,3.32-23.7-8.14-1.18-5.26-1-10.42-4.86-14.66-9-9.82-22.29,2.71-30.12,8-1.59,1.07-.09,3.67,1.52,2.59Z"/>
        <circle class="cls-2" cx="90.01" cy="203.51" r="8"/>
        <path class="cls-1" d="M97.51,228.51H82a1,1,0,1,1,0-2h15.5a1,1,0,0,1,0,2Z"/>
        <path class="cls-1" d="M97.51,171.51H82a1,1,0,1,1,0-2h15.5a1,1,0,0,1,0,2Z"/>
        <path class="cls-1" d="M97.51,182.51H82a1,1,0,1,1,0-2h15.5a1,1,0,0,1,0,2Z"/>
        <path class="cls-1" d="M97.51,239.51H82a1,1,0,1,1,0-2h15.5a1,1,0,0,1,0,2Z"/>
        <path class="cls-3" d="M52.91,90h0a1.5,1.5,0,0,1-1.47-1.53l.34-16A1.51,1.51,0,0,1,53.25,71h0a1.51,1.51,0,0,1,1.47,1.54l-.34,16A1.5,1.5,0,0,1,52.91,90Z"/>
        <path class="cls-3" d="M61.51,82.18h0l-16-.34a1.5,1.5,0,0,1,0-3h0l16,.34a1.5,1.5,0,0,1,0,3Z"/>
        <path class="cls-3" d="M291.91,168h0a1.5,1.5,0,0,1-1.47-1.53l.34-16a1.51,1.51,0,0,1,1.5-1.47h0a1.51,1.51,0,0,1,1.47,1.54l-.34,16A1.5,1.5,0,0,1,291.91,168Z"/>
        <path class="cls-3" d="M300.51,160.18h0l-16-.34a1.5,1.5,0,0,1,0-3h0l16,.34a1.5,1.5,0,0,1,0,3Z"/>
        <path class="cls-3" d="M246.51,72.13a1.47,1.47,0,0,1-1.06-.44,1.51,1.51,0,0,1,0-2.12l13.63-13.63a1.51,1.51,0,0,1,2.12,0,1.49,1.49,0,0,1,0,2.12L247.57,71.69A1.45,1.45,0,0,1,246.51,72.13Z"/>
        <path class="cls-3" d="M260.51,72.5a1.47,1.47,0,0,1-1.06-.44L245.82,58.43a1.5,1.5,0,0,1,2.12-2.12l13.63,13.63a1.49,1.49,0,0,1,0,2.12A1.45,1.45,0,0,1,260.51,72.5Z"/>
        <path class="cls-3" d="M18.51,190.13a1.47,1.47,0,0,1-1.06-.44,1.51,1.51,0,0,1,0-2.12l13.63-13.63a1.51,1.51,0,0,1,2.12,0,1.49,1.49,0,0,1,0,2.12L19.57,189.69A1.45,1.45,0,0,1,18.51,190.13Z"/>
        <path class="cls-3" d="M32.51,190.5a1.47,1.47,0,0,1-1.06-.44L17.82,176.43a1.5,1.5,0,0,1,2.12-2.12l13.63,13.63a1.49,1.49,0,0,1,0,2.12A1.45,1.45,0,0,1,32.51,190.5Z"/>
        <path class="cls-3" d="M152.51,107a10,10,0,1,1,10-10A10,10,0,0,1,152.51,107Zm0-17a7,7,0,1,0,7,7A7,7,0,0,0,152.51,90Z"/>
    </g>
</svg>