<svg xmlns="http://www.w3.org/2000/svg" viewBox="0 0 319.02 319.02"><defs><style>.cls-1{fill:#fff;}</style></defs><title>Devel ico</title><g id="Layer_2" data-name="Layer 2"><path class="cls-1" d="M31.91,177h0a1.5,1.5,0,0,1-1.47-1.53l.34-16A1.47,1.47,0,0,1,32.28,158a1.51,1.51,0,0,1,1.47,1.54l-.34,16A1.5,1.5,0,0,1,31.91,177Z"/><path class="cls-1" d="M40.51,169.18h0l-16-.34a1.5,1.5,0,0,1,0-3h0l16,.34a1.5,1.5,0,0,1,0,3Z"/><path class="cls-1" d="M261.91,67h0a1.5,1.5,0,0,1-1.47-1.53l.34-16A1.47,1.47,0,0,1,262.28,48a1.51,1.51,0,0,1,1.47,1.54l-.34,16A1.5,1.5,0,0,1,261.91,67Z"/><path class="cls-1" d="M270.51,59.18h0l-16-.34a1.5,1.5,0,0,1,0-3h0l16,.34a1.5,1.5,0,0,1,0,3Z"/><path class="cls-1" d="M278.51,169.13a1.47,1.47,0,0,1-1.06-.44,1.51,1.51,0,0,1,0-2.12l13.63-13.63a1.51,1.51,0,0,1,2.12,0,1.49,1.49,0,0,1,0,2.12l-13.63,13.63A1.45,1.45,0,0,1,278.51,169.13Z"/><path class="cls-1" d="M292.51,169.5a1.47,1.47,0,0,1-1.06-.44l-13.63-13.63a1.5,1.5,0,0,1,2.12-2.12l13.63,13.63a1.49,1.49,0,0,1,0,2.12A1.45,1.45,0,0,1,292.51,169.5Z"/><path class="cls-1" d="M48.51,85.13a1.47,1.47,0,0,1-1.06-.44,1.51,1.51,0,0,1,0-2.12L61.08,68.94a1.51,1.51,0,0,1,2.12,0,1.49,1.49,0,0,1,0,2.12L49.57,84.69A1.45,1.45,0,0,1,48.51,85.13Z"/><path class="cls-1" d="M62.52,85.5a1.44,1.44,0,0,1-1.05-.44L48,71.43a1.51,1.51,0,0,1,0-2.12,1.47,1.47,0,0,1,2.1,0L63.58,82.94a1.51,1.51,0,0,1,0,2.12A1.45,1.45,0,0,1,62.52,85.5Z"/><path class="cls-1" d="M162.51,87a10,10,0,1,1,10-10A10,10,0,0,1,162.51,87Zm0-17a7,7,0,1,0,7,7A7,7,0,0,0,162.51,70Z"/><path class="cls-1" d="M243.52,258H89.16a7,7,0,0,1-7-7V134a7,7,0,0,1,7-7H243.52a7,7,0,0,1,7,7V251A7,7,0,0,1,243.52,258ZM89.16,129a5,5,0,0,0-5,5V251a5,5,0,0,0,5,5H243.52a5,5,0,0,0,5-5V134a5,5,0,0,0-5-5Z"/><path class="cls-1" d="M249.51,151.3H83.17a1,1,0,0,1,0-2H249.51a1,1,0,0,1,0,2Z"/><path class="cls-1" d="M105.24,243.58a1,1,0,0,1-1-1v-67a1,1,0,0,1,2,0v67A1,1,0,0,1,105.24,243.58Z"/><path class="cls-1" d="M140,189.27a.9.9,0,0,1-.28,0,1,1,0,0,1-.72-1,1.35,1.35,0,0,1,0-.28l7.72-26.12a1,1,0,0,1,2,.29,1,1,0,0,1,0,.28L141,188.55A1,1,0,0,1,140,189.27Z"/><path class="cls-1" d="M131.54,183.33a1.06,1.06,0,0,1-.51-.14l-12.73-7.64a1,1,0,0,1,0-1.72L131,166.19a1,1,0,0,1,1,1.72l-11.3,6.78,11.3,6.78a1,1,0,0,1,.34,1.37A1,1,0,0,1,131.54,183.33Z"/><path class="cls-1" d="M157.86,183.33a1,1,0,0,1-.86-.49,1,1,0,0,1,.34-1.37l11.3-6.78-11.3-6.78a1,1,0,0,1,1-1.72l12.73,7.64a1,1,0,0,1,0,1.72l-12.73,7.64A1.06,1.06,0,0,1,157.86,183.33Z"/><path class="cls-1" d="M139.4,201.15l-20.27-.05v-2h0l20.89.05v2Z"/><path class="cls-1" d="M228.22,215.58l-27.76,0h-2.72v-2l31.4.05v2Z"/><path class="cls-1" d="M175.28,215.58l-37.52,0h-3.67v-2l42.44.05v2Z"/><path class="cls-1" d="M188.86,230l-37.51,0h-3.68v-2l42.44,0v2Z"/><rect class="cls-1" x="147.75" y="199.1" width="6.85" height="2"/><path class="cls-1" d="M139.52,243.59l-20.39-.05v-2h0l20.89,0v2Z"/><rect class="cls-1" x="147.75" y="241.54" width="6.85" height="2"/><rect class="cls-1" x="183.4" y="213.58" width="6.84" height="2"/><rect class="cls-1" x="198.67" y="228.01" width="13.5" height="2"/><rect class="cls-1" x="133.33" y="228.01" width="6.85" height="2"/><circle class="cls-1" cx="95.9" cy="139.89" r="3.39"/><circle class="cls-1" cx="110.33" cy="139.89" r="3.39"/><circle class="cls-1" cx="125.6" cy="139.89" r="3.39"/></g></svg>