<svg xmlns="http://www.w3.org/2000/svg" viewBox="0 0 200 200">
    <defs>
        <style>.cls-1{fill:#141516;}.cls-2{fill:#151515;}</style>
    </defs>
    <title>light</title>
    <g id="Layer_3" data-name="Layer 3">
        <path class="cls-1" d="M173.32,147.65a7.18,7.18,0,1,1,7.18-7.17A7.18,7.18,0,0,1,173.32,147.65Zm0-12.2a5,5,0,1,0,5,5A5,5,0,0,0,173.32,135.45Z"/>
        <path class="cls-1" d="M26.21,28.53a7.18,7.18,0,1,1,7.18-7.18A7.19,7.19,0,0,1,26.21,28.53Zm0-12.2a5,5,0,1,0,5,5A5,5,0,0,0,26.21,16.33Z"/>
        <path class="cls-1" d="M21.19,174.29a1.1,1.1,0,0,1-.77-.31,1.07,1.07,0,0,1,0-1.52l9.79-9.79a1.07,1.07,0,0,1,1.52,0,1.09,1.09,0,0,1,0,1.53L22,174A1.07,1.07,0,0,1,21.19,174.29Z"/>
        <path class="cls-1" d="M31.23,174.56a1.09,1.09,0,0,1-.76-.32l-9.78-9.78a1.07,1.07,0,1,1,1.52-1.52L32,172.72a1.08,1.08,0,0,1-.76,1.84Z"/>
        <path class="cls-1" d="M147.06,20.62h0A1.07,1.07,0,0,1,146,19.53l.25-11.48A1.08,1.08,0,0,1,147.3,7h0a1.09,1.09,0,0,1,1.06,1.1l-.25,11.48A1.07,1.07,0,0,1,147.06,20.62Z"/>
        <path class="cls-1" d="M153.23,15h0l-11.48-.24a1.08,1.08,0,0,1,0-2.15h0l11.48.24a1.08,1.08,0,0,1,0,2.16Z"/>
        <path class="cls-2" d="M123.45,157.7H80.39a9.69,9.69,0,1,1,0-19.38h43.06a9.69,9.69,0,0,1,0,19.38ZM80.39,140.48a7.54,7.54,0,0,0,0,15.07h43.06a7.54,7.54,0,0,0,0-15.07Z"/>
        <path class="cls-2" d="M123.45,174.92H80.39a9.69,9.69,0,1,1,0-19.37h43.06a9.69,9.69,0,1,1,0,19.37ZM80.39,157.7a7.54,7.54,0,0,0,0,15.07h43.06a7.54,7.54,0,0,0,0-15.07Z"/>
        <path class="cls-2" d="M102.28,192.51a18.68,18.68,0,0,1-18.66-18.66h2.15a16.51,16.51,0,0,0,33,0h2.16A18.68,18.68,0,0,1,102.28,192.51Z"/>
        <path class="cls-2" d="M124.44,139.76a1.07,1.07,0,0,1-1.07-1.08v-8.41a1.07,1.07,0,0,1,.61-1c14.17-6.82,21.36-18.79,21.36-35.59a42.52,42.52,0,0,0-85,0C60.3,110.44,67.06,122,81,129a1.1,1.1,0,0,1,.59,1v8.74a1.08,1.08,0,1,1-2.15,0V130.6c-14.13-7.35-21.29-19.75-21.29-36.89a44.68,44.68,0,0,1,89.35,0c0,17.46-7.39,30-22,37.24v7.73A1.08,1.08,0,0,1,124.44,139.76Z"/>
        <path class="cls-2" d="M93.1,139.76a1.08,1.08,0,0,1-1-.82l-9.49-38.39a1.22,1.22,0,0,1,0-.26,1.08,1.08,0,0,1,2.12-.26l9.49,38.4a1.07,1.07,0,0,1,0,.25,1.08,1.08,0,0,1-.82,1A1.15,1.15,0,0,1,93.1,139.76Z"/>
        <path class="cls-2" d="M111.61,139.76a1.15,1.15,0,0,1-.26,0,1.08,1.08,0,0,1-.82-1,1.07,1.07,0,0,1,0-.25L120,100a1.08,1.08,0,0,1,2.13.26.82.82,0,0,1,0,.26l-9.48,38.39A1.08,1.08,0,0,1,111.61,139.76Z"/>
        <path class="cls-2" d="M110,112.49h-.09a1.11,1.11,0,0,1-.78-.44l-6.81-9.36-6.81,9.36a1.08,1.08,0,0,1-1.63.13l-11-10.76,1.5-1.54,10.09,9.89,6.58-9a1.07,1.07,0,0,1,.87-.44h.73a1.06,1.06,0,0,1,.87.44l6.59,9,10.08-9.89,1.51,1.54-11,10.76A1.06,1.06,0,0,1,110,112.49Z"/>
        <path class="cls-2" d="M48.1,95.27H36.26a1.08,1.08,0,1,1,0-2.16H48.1a1.08,1.08,0,0,1,0,2.16Z"/>
        <path class="cls-2" d="M173.68,95.27H161.84a1.08,1.08,0,0,1,0-2.16h11.84a1.08,1.08,0,0,1,0,2.16Z"/>
        <path class="cls-2" d="M102.64,39.47a1.08,1.08,0,0,1-1.08-1.08V26.55a1.08,1.08,0,0,1,2.15,0V38.39A1.07,1.07,0,0,1,102.64,39.47Z"/>
        <path class="cls-2" d="M153.71,62.85a1.06,1.06,0,0,1-.76-.31,1.09,1.09,0,0,1-.32-.76A1.07,1.07,0,0,1,153,61l8.37-8.38a1.07,1.07,0,0,1,1.52,0,1.07,1.07,0,0,1,0,1.53l-8.37,8.37A1.07,1.07,0,0,1,153.71,62.85Z"/>
        <path class="cls-2" d="M59.46,58.55a1.07,1.07,0,0,1-.76-.32l-8.37-8.37A1.09,1.09,0,0,1,50,49.1a1.08,1.08,0,0,1,1.84-.76l8.37,8.37a1.09,1.09,0,0,1,.32.76,1.09,1.09,0,0,1-1.08,1.08Z"/>
    </g>
</svg>