<svg xmlns="http://www.w3.org/2000/svg" viewBox="0 0 636.03 319.02"><defs><style>.cls-1{fill:#fff;}</style></defs><title>Design desc</title><g id="Layer_2" data-name="Layer 2"><path class="cls-1" d="M529.41,199h0a1.5,1.5,0,0,1-1.47-1.53l.34-16a1.55,1.55,0,0,1,1.54-1.47,1.51,1.51,0,0,1,1.46,1.54l-.34,16A1.5,1.5,0,0,1,529.41,199Z"/><path class="cls-1" d="M538,191.18h0l-16-.34a1.5,1.5,0,0,1,0-3h0l16,.34a1.5,1.5,0,0,1,0,3Z"/><path class="cls-1" d="M521.41,60h0a1.5,1.5,0,0,1-1.47-1.53l.34-16a1.51,1.51,0,0,1,1.5-1.47h0a1.51,1.51,0,0,1,1.46,1.54l-.34,16A1.5,1.5,0,0,1,521.41,60Z"/><path class="cls-1" d="M530,52.18h0l-16-.34a1.5,1.5,0,0,1,0-3h0l16,.34a1.5,1.5,0,0,1,0,3Z"/><path class="cls-1" d="M573,122.13a1.48,1.48,0,0,1-1.06-.44,1.51,1.51,0,0,1,0-2.12l13.64-13.63a1.5,1.5,0,1,1,2.12,2.12l-13.64,13.63A1.45,1.45,0,0,1,573,122.13Z"/><path class="cls-1" d="M587,122.5a1.48,1.48,0,0,1-1.06-.44l-13.63-13.63a1.51,1.51,0,0,1,0-2.12,1.49,1.49,0,0,1,2.12,0l13.63,13.63a1.49,1.49,0,0,1,0,2.12A1.45,1.45,0,0,1,587,122.5Z"/><path class="cls-1" d="M467,275.13a1.48,1.48,0,0,1-1.06-.44,1.51,1.51,0,0,1,0-2.12l13.64-13.63a1.5,1.5,0,0,1,2.12,2.12l-13.64,13.63A1.45,1.45,0,0,1,467,275.13Z"/><path class="cls-1" d="M481,275.5a1.48,1.48,0,0,1-1.06-.44l-13.63-13.63a1.51,1.51,0,0,1,0-2.12,1.49,1.49,0,0,1,2.12,0l13.63,13.63a1.49,1.49,0,0,1,0,2.12A1.45,1.45,0,0,1,481,275.5Z"/><path class="cls-1" d="M587,280a10,10,0,1,1,10-10A10,10,0,0,1,587,280Zm0-17a7,7,0,1,0,7,7A7,7,0,0,0,587,263Z"/></g></svg>