<svg xmlns="http://www.w3.org/2000/svg" viewBox="0 0 636.03 319.02"><defs><style>.cls-1{fill:#fff;}</style></defs><title>Design desc</title><g id="Layer_2" data-name="Layer 2"><path class="cls-1" d="M64.41,72h0a1.5,1.5,0,0,1-1.47-1.53l.34-16A1.51,1.51,0,0,1,64.75,53h0a1.51,1.51,0,0,1,1.46,1.54l-.34,16A1.5,1.5,0,0,1,64.41,72Z"/><path class="cls-1" d="M73,64.18h0l-16-.34a1.5,1.5,0,0,1,0-3h0l16,.34a1.5,1.5,0,0,1,0,3Z"/><path class="cls-1" d="M138.41,182h0a1.5,1.5,0,0,1-1.47-1.53l.34-16a1.49,1.49,0,0,1,1.54-1.47,1.51,1.51,0,0,1,1.46,1.54l-.34,16A1.5,1.5,0,0,1,138.41,182Z"/><path class="cls-1" d="M147,174.18h0l-16-.34a1.5,1.5,0,0,1,0-3h0l16,.34a1.5,1.5,0,0,1,0,3Z"/><path class="cls-1" d="M50,165.13a1.48,1.48,0,0,1-1.06-.44,1.51,1.51,0,0,1,0-2.12l13.64-13.63a1.5,1.5,0,0,1,2.12,2.12L51.07,164.69A1.45,1.45,0,0,1,50,165.13Z"/><path class="cls-1" d="M64,165.5a1.48,1.48,0,0,1-1.06-.44L49.32,151.43a1.51,1.51,0,0,1,0-2.12,1.49,1.49,0,0,1,2.12,0l13.63,13.63a1.49,1.49,0,0,1,0,2.12A1.45,1.45,0,0,1,64,165.5Z"/><path class="cls-1" d="M180,108a10,10,0,1,1,10-10A10,10,0,0,1,180,108Zm0-17a7,7,0,1,0,7,7A7,7,0,0,0,180,91Z"/><path class="cls-1" d="M72,278a10,10,0,1,1,10-10A10,10,0,0,1,72,278Zm0-17a7,7,0,1,0,7,7A7,7,0,0,0,72,261Z"/><path class="cls-1" d="M65.41,72h0a1.5,1.5,0,0,1-1.47-1.53l.34-16A1.51,1.51,0,0,1,65.75,53h0a1.51,1.51,0,0,1,1.46,1.54l-.34,16A1.5,1.5,0,0,1,65.41,72Z"/><path class="cls-1" d="M74,64.18h0l-16-.34a1.5,1.5,0,0,1,0-3h0l16,.34a1.5,1.5,0,0,1,0,3Z"/><path class="cls-1" d="M139.41,182h0a1.5,1.5,0,0,1-1.47-1.53l.34-16a1.49,1.49,0,0,1,1.54-1.47,1.51,1.51,0,0,1,1.46,1.54l-.34,16A1.5,1.5,0,0,1,139.41,182Z"/><path class="cls-1" d="M148,174.18h0l-16-.34a1.5,1.5,0,0,1,0-3h0l16,.34a1.5,1.5,0,0,1,0,3Z"/><path class="cls-1" d="M51,165.13a1.48,1.48,0,0,1-1.06-.44,1.51,1.51,0,0,1,0-2.12l13.64-13.63a1.5,1.5,0,1,1,2.12,2.12L52.07,164.69A1.45,1.45,0,0,1,51,165.13Z"/><path class="cls-1" d="M65,165.5a1.48,1.48,0,0,1-1.06-.44L50.32,151.43a1.51,1.51,0,0,1,0-2.12,1.49,1.49,0,0,1,2.12,0l13.63,13.63a1.49,1.49,0,0,1,0,2.12A1.45,1.45,0,0,1,65,165.5Z"/><path class="cls-1" d="M181,108a10,10,0,1,1,10-10A10,10,0,0,1,181,108Zm0-17a7,7,0,1,0,7,7A7,7,0,0,0,181,91Z"/><path class="cls-1" d="M73,278a10,10,0,1,1,10-10A10,10,0,0,1,73,278Zm0-17a7,7,0,1,0,7,7A7,7,0,0,0,73,261Z"/></g></svg>