<svg id="RG" 
    xmlns="http://www.w3.org/2000/svg" fill="#ffffff" width="525.5" height="682" viewBox="0 0 525.5 682">
    <title>RG2</title>
    <path d="M362.5,804.82c0,17.16-.13,32.93-.32,46.9,1.76-6.57,4.43-22.36,5.45-43.3v-.07c-1.73-1.18-3.44-2.37-5.14-3.59Z" transform="translate(-242.5 -171)"/>
    <path d="M718.66,290.22a20.1,20.1,0,0,0,1.84-1.72c14-15,20-24.7,20-49a44,44,0,0,0-44-44c-24.3,0-48,10-50,76,0,.34,0,.67,0,1h0c-.65-.68-1.84-22.81-2.5-23.49a255.26,255.26,0,0,0-184-78c-141.38,0-217.5,140.12-217.5,281.5,0,2.79,0,5.57.1,8.35,0,.86.05,1.71.07,2.57q.09,3,.21,5.91c0,.93.09,1.86.13,2.78q.17,3.09.37,6.15c.05.74.09,1.48.15,2.22q.3,4.17.69,8.33c0,.31.07.63.1.94q.36,3.67.79,7.34c.09.79.2,1.58.29,2.37.26,2,.52,4.06.81,6.08.11.79.22,1.58.34,2.37q.51,3.46,1.09,6.92c.07.41.13.82.2,1.23.48,2.79,1,5.57,1.52,8.35.07.32.14.65.2,1,.48,2.39,1,4.77,1.49,7.14.14.65.29,1.3.44,2q.72,3.22,1.51,6.42l.42,1.73q2,8.14,4.46,16.11c.09.31.19.61.28.91s.26.81.39,1.23c0,.07.05.14.07.21a260,260,0,0,1,20.9-71.1v-.48c-3-61,32-145,36-151s7.17-8,9-8c8,0,9.68,20.23,11.84,25.11s9.57,10.89,17.16,10.89a18.89,18.89,0,0,0,10.62-3.27,138.57,138.57,0,0,1,58.73-28.55c9-2,19.65-3.18,20.65-7.18S437,317,431,313s-5-4-18.5-7.5c14,0,26,9,33.56,16.84C468.72,319.89,455,319,516,319s131.78,27.4,179.91,69.35c9.46,8.24,17.59,18.15,25.59,18.15s12.21-8.14,15.85-17.59A99.51,99.51,0,0,0,744,353C744,324.35,735.77,303.52,718.66,290.22ZM722,344a8,8,0,1,1,8-8A8,8,0,0,1,722,344Z" transform="translate(-242.5 -171)"/>
    <path d="M629.54,800.06l-.39.23a10,10,0,0,0,10,17.21l.38-.22a9.92,9.92,0,0,0,3.63-13.6A10,10,0,0,0,629.54,800.06Z" transform="translate(-242.5 -171)"/>
    <path d="M733.69,469.08A256,256,0,0,0,279.52,490c1,19.88,1.32,35.63,3.14,50.47a234.74,234.74,0,0,1,66.54-114.2A26,26,0,0,1,365.41,441a22,22,0,0,1-4.29,23.43L349.36,477a9.91,9.91,0,0,0-1.36,1.85l-26.71,46.43-23.74,16.9a9.92,9.92,0,0,0-2.45,13.7l8.88,13c-5.12.75-9.71,1.38-12.76,1.71-.59-.56-1.2-1.13-1.84-1.71l-1.14-1.05a178,178,0,0,0,8.51,22.6c2.64-.33,5.78-.78,9.55-1.34,8.44-1.25,16.83-2.65,16.91-2.67,5.67-.94,9.86-6.65,7.86-13.38a3.53,3.53,0,0,0-.46-1l-13.05-19.13,18.75-13.41a3.37,3.37,0,0,0,.95-1l27.95-48.8,11-11.76a42.25,42.25,0,0,0,8.15-44.8,46,46,0,0,0-18.22-21.45,235.79,235.79,0,0,1,143.2-50.47l-17.86,22.4-66.21,23.21a10,10,0,0,0-5.94,5.63l-18.49,44.82a10,10,0,0,0,1.11,9.63l27,37.83c-3.87,3.53-7.64,8.67-12.13,15.05-2,2.8-3.84,5.44-5.13,6.92-1.11,1.29-2.23,2.55-3.34,3.8-5.81,6.54-11.82,13.3-16.09,22.32-9.38,19.86-7.48,43,4.95,60.24,12,16.73,31.84,25.23,53,22.74a77.07,77.07,0,0,0,9.77-2c8.57-2.12,11.29-2.33,14,.25,1.33,1.25,1.46,1.49,1.43,5.73a38.88,38.88,0,0,0,.89,9.91c1.5,6.15,5.35,10.4,8.45,13.81a22.15,22.15,0,0,1,3.63,4.62c3.12,7.48,1.76,11.62-1.21,20.69-.26.77-.52,1.56-.78,2.38-4.52,14,1.78,27.87,7.34,40.12,1.81,4,3.51,7.73,4.63,11.05,9,26.68,15.73,32.79,21.14,35.25a20.8,20.8,0,0,0,8.73,1.85c14.41,0,29.45-13.39,36.36-21.87,4.34-5.33,5.41-10.66,6.19-14.56a16.1,16.1,0,0,1,1.28-4.47,26.51,26.51,0,0,1,3.28-4.22,34.67,34.67,0,0,0,8.18-13.58c1.64-5.17,2.83-6.44,6.79-10.65.68-.73,1.42-1.51,2.2-2.37,13.32-14.49,9.89-25.56,6.26-37.28-3.06-9.87,2.29-16.17,15.22-28.21,5.6-5.22,11.4-10.62,15.87-17.1,2-2.84,7.93-11.47,4.24-20-3.62-8.39-12.81-9.8-20.2-10.93-2.92-.45-7.32-1.13-8.73-2-6.18-4-10-12.49-13.63-20.66-.73-1.62-1.45-3.23-2.18-4.78-1.3-2.78-2.6-6.14-4-9.7-3.64-9.42-7.76-20.09-14.78-27.53-6.31-6.68-18.2-9.9-28.7-12.75a79,79,0,0,1-10.4-3.22,3.44,3.44,0,0,0-2.16-.29c-6.45,1.33-10.2,2.75-12.9,4.9a12.56,12.56,0,0,0-3.56,4.79,117.14,117.14,0,0,1-12-7.3h0A14.22,14.22,0,0,0,500,506c-5.59-11.81-24.13-10.89-27.79-10.58-2.08.18-4.71.27-7.49.37-4.37.15-9.19.33-14,.86l4.31-12a8.4,8.4,0,0,1,7.93-5.56H480a10.18,10.18,0,0,0,10.2-8.48,10,10,0,0,0-9.89-11.43h-5.81a45.88,45.88,0,0,0-38.88,21.58l-15-20.89,14.74-35.57,65-22.68a10.15,10.15,0,0,0,4.53-3.21l28.89-36.08c73.82,7,143.3,48.2,183.12,116.86a232.87,232.87,0,0,1,23.67,57.24l-4.26,3.78a26.67,26.67,0,0,0-8.94,19.68h0l-6.94-19a25,25,0,0,0-4.52-7.72l-15.3-17.83a15.48,15.48,0,0,0-11.75-5.39H667.6a9.54,9.54,0,0,0-4.29,1c-8.94,4.56-10.88,14.54-6.22,21.49l1.53,2.3a111.62,111.62,0,0,1-33.16,19.6L604.7,514.74v-8.92a10,10,0,0,0-3.1-7.24L582,479.82a3.39,3.39,0,0,0-1.19-.73l-18.11-6.36c-7.93-2.79-17,5-11.85,15.94a3.42,3.42,0,0,0,2,1.78l18,6.32,14,13.32v8.66a3.34,3.34,0,0,0,.37,1.52l26.64,51A10,10,0,0,0,624,576.05l7.53-2.78a130.71,130.71,0,0,0,46.92-30,10,10,0,0,0,1.25-12.61l-.53-.8h6.35a1.67,1.67,0,0,1,1.28.59l13.74,16.09a1.46,1.46,0,0,1,.3.51l14.42,39.64a3.41,3.41,0,0,0,.7,1.17,11.06,11.06,0,0,0,8.09,3.74,10,10,0,0,0,7.07-2.93l6.47-6.47a31.14,31.14,0,0,0,8.26-15c10,80.21-21.44,163.18-87.91,215.35-6.59,5.17-4.93,16.95,7,18.56a3.49,3.49,0,0,0,2.58-.68,256,256,0,0,0,66.14-331.28Zm-291,49.77c4.46-2.5,14.81-2.87,22.36-3.14,3-.1,5.89-.2,8.45-.42a27.57,27.57,0,0,1,4.26,0,9.85,9.85,0,0,0-.56,5.14,10,10,0,0,0,5.16,7.25c1.87,1,4.49,2.73,7.25,4.56,7.81,5.19,16.67,11.07,25,11.6a16.6,16.6,0,0,0,13.58-5.64c.15-.14.28-.29.43-.42a10.61,10.61,0,0,0,2.67-3.26c1.6.45,3.28.91,5,1.37,5.93,1.6,16.94,4.57,19.38,7.14,4.32,4.56,7.69,13.25,10.67,20.91,1.5,3.88,2.92,7.53,4.52,10.92.68,1.46,1.35,3,2,4.47,4.61,10.25,9.84,21.86,20.93,29.08,5,3.27,11.2,4.21,16.64,5.05l2.18.34c-3.23,4.48-7.83,8.75-12.69,13.25-12.38,11.48-27.78,25.76-20.69,48.55,3.35,10.76,3.51,11.92-1.88,17.75-.73.8-1.41,1.52-2.05,2.2-4.62,4.89-8.26,8.75-11.27,18.21-.88,2.74-2,4-4.08,6.32a44.73,44.73,0,0,0-5.59,7.38,32.11,32.11,0,0,0-3.62,10.57c-.59,3-.93,4.42-2.09,5.84A58,58,0,0,1,536,755c-4.7,3-7.44,3.38-8.38,3.32-1.06-1.13-4.93-6.12-10.77-23.38-1.44-4.25-3.44-8.63-5.37-12.87-4.26-9.34-8.66-19-6.52-25.59.26-.78.51-1.54.75-2.29,3.42-10.38,6.65-20.18.67-34.46-1.82-4.35-4.72-7.52-7.28-10.33-1.65-1.81-3.53-3.86-3.82-5a21.66,21.66,0,0,1-.33-5c0-5.2.09-13.06-7.76-20.38-11.06-10.31-24-7.14-32.51-5a64.74,64.74,0,0,1-7.29,1.51c-14.05,1.64-26.59-3.64-34.42-14.49-8.19-11.34-9.38-26.61-3.1-39.84,3-6.4,7.63-11.55,12.95-17.5,1.16-1.3,2.33-2.61,3.5-4,2-2.23,4.1-5.26,6.36-8.47C435.41,527.33,440.46,520.2,442.65,518.85Z" transform="translate(-242.5 -171)"/>
    <path d="M344.08,654.43a10,10,0,0,0,4.14,1.85l24.85,4.83a11,11,0,0,1,7.45,5.26,10.88,10.88,0,0,1,1,9,30.66,30.66,0,0,0,0,19.22l3.17,9.71a11.07,11.07,0,0,1-7.13,13.94l-9.94,3.21a10,10,0,0,0-5.8,4.94c6.14,29.9,7,59,5.88,81.92a256,256,0,0,0,239.23,26.46,3.44,3.44,0,0,0,1.88-1.85c4.77-11.06-4.51-18.55-12.33-15.54a234.42,234.42,0,0,1-225.58-31l9-46.77,4.31-1.4a31.14,31.14,0,0,0,20-39.2l-4-12.19a3.67,3.67,0,0,1,.11-2.55,31.11,31.11,0,0,0-22.9-42.13l-22.57-4.41-43.55-33.11a10,10,0,0,0-8.38-1.75c5.65,10.85,12.8,22.92,21.9,36.88Z" transform="translate(-242.5 -171)"/>
    <path d="M356.89,749.57l-4.05,21.08a237.67,237.67,0,0,1-45.55-56.57,232.91,232.91,0,0,1-29.05-82.9l10.32-3.33q-5.13-8.36-9.71-17.2l-2.27.74c-.11-1.91-.19-3.82-.25-5.73q-3.49-7.08-6.65-14.44-3.23-7.54-6.08-15.35c-.13-.38-.27-.76-.4-1.13q-1.18-3.29-2.31-6.62c-.17-.52-.35-1-.52-1.56q-.9-2.73-1.75-5.48A256.06,256.06,0,0,0,362.5,804.76V798.5A215.57,215.57,0,0,0,356.89,749.57Z" transform="translate(-242.5 -171)"/>
    <path d="M665.56,684.48l-4.81-18.06a10,10,0,0,0-18.46-2.19c-1.09,2-2.08,4.14-3,6.2-1.61,3.47-3.27,7.05-5,9-1,1.11-3.47,2.31-5.87,3.46-5.76,2.77-13.64,6.56-16.66,16.12a29,29,0,0,0-.66,14c.44,3,.55,4-.25,5.87l-.1.23c-3.19,7.44-9.11,21.28-.8,33.05,5.92,8.39,12.15,10.55,17,10.55a16.15,16.15,0,0,0,2.67-.21c10.19-1.66,17.86-12.22,24.13-33.24l11.76-39.47A9.93,9.93,0,0,0,665.56,684.48Zm-31,39.18c-3.2,10.72-6,15.72-7.65,17.94-.19-.24-.39-.51-.61-.82-1.91-2.71.94-9.38,2.83-13.8l.1-.23c3-7.12,2.24-12.59,1.64-16.59-.38-2.55-.51-3.65,0-5.16.4-1.24,2.74-2.45,6.27-4.15,1.56-.75,3.29-1.58,5-2.58Z" transform="translate(-242.5 -171)"/>
    <path d="M524.9,459.83a10,10,0,1,0-6.61,18.79l.67.24a10,10,0,0,0,12.74-6.1,9.94,9.94,0,0,0-6.12-12.69Z" transform="translate(-242.5 -171)"/>
    <path d="M362.5,804.82c0,17.16-.13,32.93-.32,46.9,1.76-6.57,4.43-22.36,5.45-43.3v-.07c-1.73-1.18-3.44-2.37-5.14-3.59Z" transform="translate(-242.5 -171)"/>
</svg>